<svg width="424" height="186" viewBox="0 0 424 186" fill="none" xmlns="http://www.w3.org/2000/svg">
<path d="M93.0416 186C144.384 186 186.083 144.41 186.083 93.0205C186.083 41.629 144.384 0 93.0416 0C41.6196 0 0 41.629 0 93.0205C0 144.41 41.6196 186 93.0416 186Z" fill="#A50034"/>
<path d="M89.2979 52.1982V133.802H115.232V126.464H96.7725V52.1982H89.2979Z" fill="white"/>
<path d="M63.3308 74.4636C69.5007 74.4636 74.4741 69.4451 74.4741 63.3164C74.4741 57.183 69.5007 52.1452 63.3308 52.1452C57.161 52.1452 52.1875 57.183 52.1875 63.3164C52.1875 69.4499 57.161 74.4636 63.3308 74.4636Z" fill="white"/>
<path d="M96.7701 15.1808C95.7976 15.1326 93.9488 15.0724 93.0653 15.0724C50.1193 15.0724 15.168 50.0478 15.168 92.982C15.168 113.836 23.2685 133.383 37.9409 148.082C52.6735 162.747 72.223 170.851 93.0653 170.851C113.828 170.851 133.373 162.747 148.079 148.082C162.788 133.383 170.927 113.836 170.927 92.982V89.5167H167.775H115.304V96.6881H163.507C163.507 96.8446 163.507 97.6055 163.474 97.803C161.023 134.507 130.378 163.578 93.0653 163.578C74.1778 163.578 56.4674 156.231 43.1382 142.888C29.7657 129.6 22.397 111.898 22.397 92.9796C22.397 74.1698 29.7657 56.3763 43.1382 43.0474C56.4674 29.7306 74.1778 22.3834 93.0653 22.3834C93.879 22.3834 95.8578 22.3834 96.7701 22.4316V15.1808Z" fill="white"/>
<path d="M256.056 31.3102H228.098V152.385H313.97V128.817H256.056V31.3102V31.3102ZM375.474 106.246H398.245V127.415C394.046 129.014 385.859 130.609 378.069 130.609C352.906 130.609 344.524 117.824 344.524 91.8573C344.524 67.0947 352.506 52.4944 377.67 52.4944C391.653 52.4944 399.641 56.8916 406.222 65.2839L423.605 49.2964C413.018 34.1253 394.441 29.5306 377.073 29.5306C337.92 29.5306 317.355 50.905 317.355 91.6551C317.355 132.208 335.927 154.182 376.875 154.182C395.645 154.182 414.02 149.39 424 142.399V83.665H375.474V106.246Z" fill="#6C6C6C"/>
</svg>
