<svg width="877" height="804" viewBox="0 0 877 804" fill="none" xmlns="http://www.w3.org/2000/svg">
<path d="M438.2 804L393.28 763.47C315.86 692.63 251.957 631.463 201.57 579.97C151.183 528.477 111.017 482.467 81.07 441.94C51.13 401.407 30.1333 364.707 18.08 331.84C6.20292 299.941 0.0813412 266.188 0 232.15C0 166.417 22.0934 111.46 66.28 67.28C110.467 23.1 165.06 1.00665 230.06 0.999982C271.69 0.999982 310.217 10.86 345.64 30.58C381.063 50.3 411.92 78.7833 438.21 116.03C468.877 76.59 501.377 47.56 535.71 28.94C569.637 10.418 607.707 0.80487 646.36 0.999982C711.36 0.999982 765.953 23.0933 810.14 67.28C854.327 111.467 876.42 166.423 876.42 232.15C876.34 266.188 870.218 299.942 858.34 331.84C846.29 364.7 825.293 401.4 795.35 441.94C765.407 482.48 725.24 528.49 674.85 579.97C624.46 631.46 560.557 692.627 483.14 763.47L438.2 804ZM438.2 717.46C511.96 649.54 572.76 591.297 620.6 542.73C668.44 494.163 706.417 451.62 734.53 415.1C762.65 378.58 782.37 346.08 793.69 317.6C805.01 289.12 810.67 260.637 810.67 232.15C810.67 183.95 795.333 144.33 764.66 113.29C733.987 82.25 694.55 66.73 646.35 66.73C609.1 66.73 574.41 78.2333 542.28 101.24C510.15 124.247 484.223 156.563 464.5 198.19H410.82C391.83 157.29 366.27 125.157 334.14 101.79C302.01 78.4233 267.32 66.7367 230.07 66.73C181.87 66.73 142.433 82.25 111.76 113.29C81.0867 144.33 65.75 183.95 65.75 232.15C65.75 260.63 71.41 289.297 82.73 318.15C94.05 347.003 113.77 379.867 141.89 416.74C170.01 453.62 208.17 496.163 256.37 544.37C304.55 592.57 365.16 650.267 438.2 717.46Z" fill="black"/>
</svg>
