<?xml version="1.0" encoding="utf-8"?>
<!-- Generator: Adobe Illustrator 24.0.1, SVG Export Plug-In . SVG Version: 6.00 Build 0)  -->
<svg version="1.1" id="Layer_1" xmlns="http://www.w3.org/2000/svg" xmlns:xlink="http://www.w3.org/1999/xlink" x="0px" y="0px"
	 viewBox="0 0 1920 1080" style="enable-background:new 0 0 1920 1080;" xml:space="preserve">
<path d="M892.2,1009.81l-44.92-40.53c-77.42-70.84-141.32-132.01-191.71-183.5s-90.56-97.5-120.5-138.03
	c-29.94-40.53-50.94-77.23-62.99-110.1S454,471.56,454,437.96c0-65.73,22.09-120.69,66.28-164.87
	c44.19-44.19,98.78-66.28,163.78-66.28c41.63,0,80.15,9.86,115.58,29.58c35.42,19.72,66.28,48.2,92.57,85.45
	c30.67-39.44,63.17-68.47,97.5-87.09c34.33-18.62,71.21-27.94,110.65-27.94c65,0,119.59,22.09,163.78,66.28
	c44.19,44.19,66.28,99.14,66.28,164.87c0,33.6-6.03,66.83-18.08,99.69c-12.05,32.86-33.05,69.56-62.99,110.1
	s-70.11,86.54-120.5,138.03c-50.39,51.49-114.3,112.65-191.71,183.5L892.2,1009.81z M892.2,923.27
	c73.76-67.92,134.56-126.16,182.4-174.73c47.84-48.57,85.81-91.11,113.93-127.63c28.12-36.52,47.84-69.02,59.16-97.5
	c11.32-28.48,16.98-56.97,16.98-85.45c0-48.2-15.34-87.82-46.01-118.86c-30.67-31.04-70.11-46.56-118.31-46.56
	c-37.25,0-71.94,11.5-104.07,34.51s-58.06,55.32-77.78,96.95h-53.68c-18.99-40.9-44.55-73.03-76.68-96.4
	c-32.13-23.37-66.83-35.06-104.07-35.06c-48.2,0-87.64,15.52-118.31,46.56c-30.67,31.04-46.01,70.66-46.01,118.86
	c0,28.48,5.66,57.15,16.98,86c11.32,28.85,31.04,61.71,59.16,98.59c28.12,36.88,66.28,79.42,114.48,127.63
	C758.55,798.38,819.17,856.08,892.2,923.27z"/>
</svg>
