<svg xmlns="http://www.w3.org/2000/svg" width="876.42" height="803" viewBox="0 0 876.42 803">
  <path id="heart2" d="M892.2,1009.81l-44.92-40.53Q731.15,863.02,655.57,785.78T535.07,647.75q-44.91-60.8-62.99-110.1A287.668,287.668,0,0,1,454,437.96q0-98.6,66.28-164.87t163.78-66.28q62.445,0,115.58,29.58t92.57,85.45q46-59.16,97.5-87.09a228.507,228.507,0,0,1,110.65-27.94q97.5,0,163.78,66.28t66.28,164.87a287.627,287.627,0,0,1-18.08,99.69q-18.075,49.29-62.99,110.1t-120.5,138.03q-75.585,77.235-191.71,183.5Zm0-86.54q110.64-101.88,182.4-174.73t113.93-127.63q42.18-54.78,59.16-97.5t16.98-85.45q0-72.3-46.01-118.86t-118.31-46.56q-55.875,0-104.07,34.51T918.5,404H864.82q-28.485-61.35-76.68-96.4T684.07,272.54q-72.3,0-118.31,46.56T519.75,437.96q0,42.72,16.98,86t59.16,98.59q42.18,55.32,114.48,127.63Q782.64,822.48,892.2,923.27Z" transform="translate(-454 -206.81)"/>
</svg>
