<svg xmlns="http://www.w3.org/2000/svg" width="26.62" height="28" viewBox="0 0 26.62 28">
  <path id="pavicon" d="M337.9,635.7c1.248-1.284,1.8-1.878,1.716-2.23a1.18,1.18,0,0,0-.713-.69,1.823,1.823,0,0,0-1.326-.156,4.5,4.5,0,0,0-.7.639l-.394.386h0c-.216-.253-.447-.506-.675-.734a12.442,12.442,0,0,0-6.059-3.333,3.816,3.816,0,0,0-3.281-1.5,3.7,3.7,0,0,0-2.631,1.53,13.958,13.958,0,0,0-6.481,3.508h0a2.881,2.881,0,0,0-1.755.2.88.88,0,0,0-.547.533c-.041.16.008.418.606,1.2v0a13.75,13.75,0,0,0-2.639,8.716,12.559,12.559,0,0,0,3.638,8.3,12.38,12.38,0,0,0,2.587,1.983h0a15.313,15.313,0,0,0,14.274.475l.008,0a.776.776,0,0,0,.374-1l-.045-.123c-.606-1.656-2.452-6.7-.931-11.075a16.633,16.633,0,0,1,3.613-5.194h0a12.214,12.214,0,0,1,1.454,7.164,11.16,11.16,0,0,1-2.65,6.133h0a.261.261,0,0,0-.072.181.442.442,0,0,0,.013.084l.117.331a.264.264,0,0,0,.44.087h.008a13.433,13.433,0,0,0,2.058-15.408h0Zm-16.552,9.464a25.285,25.285,0,0,0-.835,7.418h0a12.638,12.638,0,0,1-2.461-1.912,12.418,12.418,0,0,1-3.579-7.419,11.511,11.511,0,0,1,1.752-7.5h0c.445.533.986,1.15,1.553,1.794a38.617,38.617,0,0,1,3.7,4.609c.428.72.22,1.581-.125,3.008Zm13.693-10.177c-2.93,2.568-5.618,3.884-7.981,3.9a9.6,9.6,0,0,1-5.586-1.995,21.954,21.954,0,0,1-3.438-3.136l-.072-.077h0a11.2,11.2,0,0,1,5.161-2.729h0s0,0,0,0a5.624,5.624,0,0,0-.274,2.328,5.3,5.3,0,0,0,1.781,3.6,3.551,3.551,0,0,0,5.169-.452,5.291,5.291,0,0,0,1.128-3.854,5.844,5.844,0,0,0-.123-.787h0a12.5,12.5,0,0,1,3.6,2.522c.214.215.426.442.63.68h0" transform="translate(-313.003 -628.069)" fill="#ed1b2d"/>
</svg>
