<svg xmlns="http://www.w3.org/2000/svg" width="48.17" height="65.373" viewBox="0 0 48.17 65.373">
  <path id="support_ico4" d="M34.085,43.31a8.137,8.137,0,0,1-6.193-2.667A9.1,9.1,0,0,1,25.4,34.192V12.6a8.235,8.235,0,0,1,2.538-6.107,8.829,8.829,0,0,1,12.3,0A8.235,8.235,0,0,1,42.773,12.6v21.59a9.1,9.1,0,0,1-2.494,6.451,8.137,8.137,0,0,1-6.193,2.667ZM34.085,23.7ZM31.5,69.373v-11.7a23.479,23.479,0,0,1-15.311-7.656A22.565,22.565,0,0,1,10,34.192h5.161a17.531,17.531,0,0,0,5.548,13.161,18.605,18.605,0,0,0,13.376,5.333A18.605,18.605,0,0,0,47.46,47.353a17.531,17.531,0,0,0,5.548-13.161H58.17a22.565,22.565,0,0,1-6.193,15.827,23.479,23.479,0,0,1-15.311,7.656v11.7Zm2.581-31.224a3.183,3.183,0,0,0,2.538-1.161,4.167,4.167,0,0,0,.989-2.8V12.6a3.259,3.259,0,0,0-1.032-2.451,3.64,3.64,0,0,0-4.989,0A3.259,3.259,0,0,0,30.558,12.6v21.59a4.167,4.167,0,0,0,.989,2.8A3.183,3.183,0,0,0,34.085,38.149Z" transform="translate(-10 -4)" fill="#3d3d3d"/>
</svg>
