<svg xmlns="http://www.w3.org/2000/svg" width="75" height="52.926" viewBox="0 0 75 52.926">
  <path id="support_ico1_w" d="M60.807,41.422V30.342H49.727V25.228h11.08V14.149H65.92v11.08H77v5.114H65.92v11.08Zm-31.534-6.9A12.261,12.261,0,0,1,16.489,21.734,12.261,12.261,0,0,1,29.273,8.95,12.261,12.261,0,0,1,42.057,21.734,12.261,12.261,0,0,1,29.273,34.518ZM2,61.876V53.865a10.137,10.137,0,0,1,1.491-5.412,9.031,9.031,0,0,1,4.3-3.622,65.315,65.315,0,0,1,11.378-3.963,44.771,44.771,0,0,1,10.1-1.151A44.216,44.216,0,0,1,39.33,40.868a65.822,65.822,0,0,1,11.335,3.963A9.875,9.875,0,0,1,55.011,48.5a9.716,9.716,0,0,1,1.534,5.369v8.011Zm5.114-5.114H51.432v-2.9a4.853,4.853,0,0,0-.767-2.6,4.716,4.716,0,0,0-2.045-1.832,50.364,50.364,0,0,0-10.227-3.707,43.543,43.543,0,0,0-9.119-.895,44.155,44.155,0,0,0-9.162.895,50.005,50.005,0,0,0-10.27,3.707,4.463,4.463,0,0,0-2,1.832,5.064,5.064,0,0,0-.724,2.6ZM29.273,29.4a7.433,7.433,0,0,0,7.67-7.67,7.433,7.433,0,0,0-7.67-7.67,7.433,7.433,0,0,0-7.67,7.67,7.433,7.433,0,0,0,7.67,7.67ZM29.273,21.734ZM29.273,56.763Z" transform="translate(-2 -8.95)" fill="#fff"/>
</svg>
