<svg width="25" height="26" viewBox="0 0 25 26" fill="none" xmlns="http://www.w3.org/2000/svg">
<path d="M5.4571 9.22461C5.28668 9.22461 5.12008 9.27908 4.9784 9.38119C4.83672 9.48329 4.72636 9.62841 4.6612 9.79818C4.59604 9.96796 4.579 10.1548 4.61233 10.3349C4.64566 10.5151 4.72781 10.6806 4.84839 10.8104C4.96898 10.9403 5.12256 11.0286 5.28973 11.0643C5.4569 11.1 5.63018 11.0815 5.78756 11.011C5.94494 10.9405 6.07937 10.8212 6.17388 10.6684C6.2684 10.5155 6.31871 10.3358 6.31848 10.1521C6.31848 10.0302 6.29622 9.90947 6.25292 9.79687C6.20962 9.68426 6.14615 9.58194 6.06615 9.4958C5.98615 9.40966 5.89116 9.34138 5.78665 9.29484C5.68215 9.24831 5.57016 9.22445 5.4571 9.22461V9.22461Z" fill="white" fill-opacity="0.6"/>
<path d="M13.9602 9.12695C13.7766 9.12671 13.5971 9.18518 13.4444 9.29493C13.2917 9.40469 13.1726 9.5608 13.1022 9.74355C13.0318 9.9263 13.0133 10.1275 13.0489 10.3216C13.0846 10.5157 13.1729 10.694 13.3026 10.834C13.4323 10.974 13.5976 11.0694 13.7776 11.1081C13.9576 11.1468 14.1442 11.1271 14.3138 11.0514C14.4833 10.9757 14.6283 10.8475 14.7303 10.683C14.8323 10.5185 14.8868 10.3251 14.8868 10.1272C14.8869 9.9959 14.863 9.86587 14.8165 9.74453C14.77 9.62318 14.7018 9.5129 14.6157 9.42001C14.5297 9.32711 14.4275 9.25342 14.315 9.20313C14.2025 9.15285 14.082 9.12695 13.9602 9.12695V9.12695Z" fill="white" fill-opacity="0.6"/>
<path d="M21.6574 0H3.34494C2.45781 0 1.60696 0.379941 0.979665 1.05625C0.35237 1.73256 0 2.64986 0 3.6063V15.323C0 16.2795 0.35237 17.1967 0.979665 17.8731C1.60696 18.5494 2.45781 18.9293 3.34494 18.9293H9.81285L12.0138 24.5176C12.0138 24.5176 12.1659 25.001 12.5309 25.001C12.8981 25.001 13.048 24.5176 13.048 24.5176L15.2489 18.9293H21.6551C22.5422 18.9293 23.393 18.5494 24.0203 17.8731C24.6476 17.1967 25 16.2795 25 15.323V3.6063C25 2.65028 24.6479 1.73336 24.0211 1.05712C23.3943 0.380878 22.5441 0.000653912 21.6574 0V0ZM7.85324 10.3601C7.84606 10.9448 7.62632 11.5032 7.24126 11.9152C6.85619 12.3271 6.33657 12.5596 5.79414 12.5628C5.56205 12.5638 5.33221 12.5141 5.11847 12.4166C4.90474 12.319 4.71152 12.1758 4.55061 11.9955V12.3815H3.05434V5.72272C3.05434 5.72272 3.04748 5.72272 3.05434 5.72272C3.14814 5.73752 4.55061 5.72272 4.55061 5.72272V8.26709C4.90181 7.61958 5.92337 7.63069 5.92337 7.63069C6.21939 7.66461 6.50589 7.76325 6.76535 7.92059C7.02481 8.07792 7.2518 8.29061 7.43243 8.54572C7.61305 8.80083 7.74353 9.09298 7.81589 9.4043C7.88824 9.71562 7.90094 10.0396 7.85324 10.3564V10.3601ZM10.4843 7.8391V12.3939H9.0201V7.88107C9.0201 7.2644 8.31308 7.09664 8.31308 7.09664V5.50686C8.60311 5.48292 8.89452 5.5266 9.16749 5.63491C9.44046 5.74322 9.6886 5.91363 9.89503 6.13456C10.1015 6.35549 10.2614 6.62173 10.3639 6.91522C10.4664 7.20871 10.509 7.52256 10.4889 7.83541L10.4843 7.8391ZM13.9551 12.5665C13.5165 12.527 13.0981 12.3506 12.7509 12.0589C12.4038 11.7673 12.1429 11.373 12.0001 10.9241C11.8574 10.4752 11.839 9.99129 11.9472 9.53133C12.0553 9.07137 12.2854 8.6553 12.6092 8.33397C12.933 8.01264 13.3367 7.79992 13.7708 7.72182C14.2049 7.64371 14.6508 7.70359 15.0539 7.89413C15.4569 8.08467 15.7998 8.39765 16.0406 8.79482C16.2815 9.19198 16.4098 9.65614 16.41 10.1306C16.3821 10.8027 16.1088 11.4355 15.6497 11.8912C15.1907 12.3468 14.5832 12.5882 13.9597 12.5628L13.9551 12.5665ZM21.9765 12.5665C21.9845 12.8739 21.934 13.1799 21.8281 13.4655C21.7222 13.7511 21.5631 14.0103 21.3608 14.227C21.1584 14.4438 20.917 14.6136 20.6514 14.726C20.3859 14.8383 20.1018 14.8908 19.8167 14.8803H19.1521V13.3818H19.5525C19.5525 13.3818 20.4676 13.473 20.4585 11.9498C20.4585 11.9498 20.28 12.5665 18.9942 12.5665C18.5048 12.5371 18.0441 12.308 17.7056 11.9257C17.3672 11.5434 17.1764 11.0365 17.1719 10.508V9.78038C17.1951 9.2095 17.4194 8.66968 17.799 8.27093C18.1787 7.87217 18.6851 7.64451 19.215 7.63438C19.4582 7.6166 19.7017 7.66355 19.9241 7.77109C20.1465 7.87862 20.3411 8.04343 20.4905 8.25105V7.75772H21.9776L21.9765 12.5665Z" fill="white" fill-opacity="0.6"/>
<path d="M19.6502 9.15039C19.471 9.15039 19.2958 9.20769 19.1468 9.31502C18.9978 9.42235 18.8817 9.57491 18.8131 9.7534C18.7445 9.93189 18.7266 10.1283 18.7616 10.3178C18.7965 10.5072 18.8828 10.6813 19.0095 10.8179C19.1362 10.9545 19.2976 11.0475 19.4734 11.0852C19.6491 11.1229 19.8314 11.1036 19.9969 11.0296C20.1625 10.9557 20.3039 10.8305 20.4035 10.6699C20.503 10.5093 20.5562 10.3204 20.5562 10.1272C20.5559 9.86822 20.4604 9.61997 20.2905 9.43686C20.1207 9.25374 19.8904 9.15072 19.6502 9.15039V9.15039Z" fill="white" fill-opacity="0.6"/>
</svg>
