<svg width="25" height="25" viewBox="0 0 25 25" fill="none" xmlns="http://www.w3.org/2000/svg">
<path d="M7.32123 0.0851789C5.98751 0.141965 5.07946 0.354912 4.2849 0.667234C3.47616 0.993753 2.78093 1.41965 2.0857 2.11528C1.39047 2.8109 0.964813 3.50653 0.652667 4.32993C0.340522 5.12493 0.141884 6.0335 0.0709421 7.36797C0.0141884 8.70244 0 9.12834 0 12.5213C0.0141884 15.9143 0.0283768 16.3401 0.0851305 17.6746C0.141884 19.0091 0.354711 19.9177 0.666856 20.6985C0.99319 21.5219 1.41884 22.2175 2.11407 22.9131C2.80931 23.6087 3.50454 24.0346 4.32747 24.347C5.12202 24.6593 6.03008 24.858 7.36379 24.929C8.6975 24.9858 9.12316 25 12.5142 25C15.9052 24.9858 16.3309 24.9858 17.6646 24.9148C18.9983 24.858 19.9064 24.6451 20.7009 24.3328C21.5238 24.0062 22.2191 23.5804 22.9143 22.8847C23.6095 22.1891 24.0352 21.4935 24.3473 20.6701C24.6595 19.8751 24.8581 18.9665 24.9291 17.632C24.9858 16.2976 25 15.8717 25 12.4787C24.9858 9.08575 24.9858 8.65985 24.9149 7.32538C24.8581 5.99091 24.6453 5.08234 24.3331 4.28734C24.0068 3.46394 23.5812 2.76831 22.8859 2.07269C22.1907 1.37706 21.4955 0.951164 20.6725 0.638842C19.878 0.326519 18.9699 0.127768 17.6362 0.0567859C16.2883 0.0141964 15.8627 0 12.4716 0C9.08059 0.0141965 8.65494 0.028393 7.32123 0.0851789ZM7.46311 22.6718C6.24291 22.615 5.59024 22.4162 5.1504 22.2459C4.56867 22.0187 4.15721 21.749 3.71737 21.3089C3.27753 20.8688 3.00795 20.4571 2.78093 19.8751C2.61067 19.435 2.39784 18.7677 2.34109 17.561C2.28434 16.2408 2.27015 15.8433 2.25596 12.5071C2.25596 9.17093 2.25596 8.77342 2.31271 7.45315C2.36947 6.23225 2.5681 5.57922 2.73837 5.13913C2.96538 4.55707 3.23496 4.14537 3.6748 3.70528C4.11464 3.26519 4.52611 2.99546 5.10783 2.76831C5.54767 2.59796 6.21453 2.3992 7.42054 2.32822C8.74007 2.27144 9.13734 2.25724 12.4574 2.24304C15.7917 2.24304 16.189 2.24304 17.5085 2.29983C18.7287 2.35662 19.3814 2.55537 19.8212 2.72572C20.403 2.95287 20.8286 3.2226 21.2543 3.66269C21.6941 4.10278 21.9637 4.51448 22.1907 5.09654C22.361 5.53663 22.5596 6.20386 22.6305 7.41056C22.6873 8.73083 22.7015 9.12834 22.7157 12.4503C22.7299 15.7865 22.7157 16.184 22.6589 17.5043C22.6022 18.7252 22.4035 19.3782 22.2333 19.8325C22.0062 20.4145 21.7367 20.8262 21.2968 21.2663C20.857 21.7064 20.4455 21.9761 19.8638 22.2033C19.424 22.3736 18.7571 22.5724 17.5511 22.6434C16.2316 22.7002 15.8343 22.7144 12.5 22.7286C9.17991 22.7428 8.78263 22.7286 7.46311 22.6718ZM17.6504 5.82056C17.6504 6.64395 18.3314 7.31119 19.1544 7.31119C19.9773 7.31119 20.6583 6.62976 20.6442 5.80636C20.6442 4.98296 19.9631 4.31573 19.1402 4.31573C18.3173 4.31573 17.6504 4.99716 17.6504 5.82056ZM6.08683 12.5071C6.08683 16.0562 8.96708 18.9097 12.5142 18.9097C16.0471 18.8955 18.9132 16.0278 18.9132 12.4787C18.899 8.94378 16.0329 6.0619 12.4858 6.07609C8.93871 6.09029 6.07264 8.97217 6.08683 12.5071ZM8.3286 12.5071C8.3286 10.2073 10.1873 8.34753 12.4858 8.33333C14.7843 8.33333 16.6572 10.1931 16.6572 12.4929C16.6572 14.7927 14.7985 16.6667 12.5 16.6667C10.2015 16.6667 8.34279 14.8069 8.3286 12.5071Z" fill="white" fill-opacity="0.6"/>
</svg>
