<svg width="25" height="18" viewBox="0 0 25 18" fill="none" xmlns="http://www.w3.org/2000/svg">
<path d="M24.4781 2.73376C24.3356 2.20409 24.0564 1.72116 23.6685 1.33331C23.2807 0.945458 22.7978 0.66629 22.2681 0.523756C20.3181 7.93485e-06 12.5006 0 12.5006 0C12.5006 0 4.68191 7.93485e-06 2.73316 0.523756C2.20338 0.666329 1.7203 0.945481 1.33226 1.33331C0.944208 1.72114 0.664775 2.20406 0.521902 2.73376C-0.173967 6.71566 -0.173967 10.7881 0.521902 14.77C0.663966 15.3001 0.94313 15.7834 1.3313 16.1714C1.71948 16.5593 2.20298 16.8382 2.73316 16.98C4.68316 17.5025 12.5006 17.5025 12.5006 17.5025C12.5006 17.5025 20.3181 17.5025 22.2681 16.98C22.7978 16.8374 23.2807 16.5583 23.6685 16.1704C24.0564 15.7826 24.3356 15.2996 24.4781 14.77C25.174 10.7881 25.174 6.71566 24.4781 2.73376V2.73376ZM10.0006 12.5012V5.00125L16.5006 8.75123L10.0006 12.5012Z" fill="white" fill-opacity="0.6"/>
</svg>
