<svg xmlns="http://www.w3.org/2000/svg" width="97.651" height="39.259" viewBox="0 0 97.651 39.259">
  <g id="logo_w" transform="translate(-0.289 -0.618)">
    <path id="패스_2" data-name="패스 2" d="M194.575,17.722c1.264-1.437,2.6-2.808,3.957-4.266-1.24-.4-2.531.537-3.293-.048-1.908-1.461-3.59-.7-5.329.069-1.008.443-1.942,1.046-3.223,1.745,1.482-3.912,1.558-7.288-.467-10.758-.471-.8-1.025-.859-1.492-1.246C179.2-1.342,167.606.209,161.852,6.985c-1.925,2.268-2.375,4.941-1.16,6.482,1.288,1.634,4,1.839,6.727.737,1.371-.551,2.361-1.686,3.864-2.095a44.346,44.346,0,0,1-5.142,7.2,2.573,2.573,0,0,1-2.9.845,15.015,15.015,0,0,0-6.845-.464c-1.018.2-2.247.409-2.24,1.735.007,1.243,1.219,1.378,2.157,1.6a13.471,13.471,0,0,0,7.146-.589,3.968,3.968,0,0,1,2.683.01,17.339,17.339,0,0,0,16.311-2.07c.125-.059.246-.118.37-.18-.007.18-.01.364-.017.544,0,1.821.506,2.974,1.444,3.383a2.246,2.246,0,0,0,1.077.159,5.1,5.1,0,0,0,1.849-.578,9.293,9.293,0,0,0,1.409-.935c.27-.208.54-.415.817-.613l.1-.069c.1-.08.218-.166.242-.145.194.152.121.357.014.54.132,1.125.405,1.78.959,2.06a1.5,1.5,0,0,0,.415.132,3.889,3.889,0,0,0,1.468-.125,6.262,6.262,0,0,0,4.64-3.951c-1.122.814-2.424,1.783-3.76,2.7-.364.253-.855.506-1.288.17s-.284-.848-.18-1.291A10.336,10.336,0,0,1,194.575,17.722Zm-37.764,4.844c-.672-.1-1.451-.419-1.368-1.285.08-.828.859-1.028,1.555-1.1a11.742,11.742,0,0,1,6.1,1.378A8.967,8.967,0,0,1,156.811,22.566ZM171.1,11.417c-.409-.315-.62.017-.848.2a15.883,15.883,0,0,1-3.421,1.984,2.907,2.907,0,0,1-3.3-.357,2.977,2.977,0,0,1-1.177-3.043,6.758,6.758,0,0,1,1.447-3.279,16.2,16.2,0,0,1,16.031-5.349,6.209,6.209,0,0,1,3.487,2.053c-4.962.942-8.382,3.9-11.2,7.721C171.744,11.871,171.692,11.871,171.1,11.417Zm7.309,9.992c-3.746,2.375-7.486,1.427-11.412-.28,3.788-2.642,6.028-6.277,8.459-9.764,1.731-2.486,3.268-5.183,6.232-6.516,2.219-1,2.746-.786,3.518,1.5a8.67,8.67,0,0,1,.2,4.432A15.32,15.32,0,0,1,178.412,21.409Zm10.533.08a5.666,5.666,0,0,1-2.2,1.347c-1.143.315-1.773-.149-1.811-1.378a4.717,4.717,0,0,1,.3-.98,18.343,18.343,0,0,1,6.745-7.018c.737-.436,1.676-.831,2.344.076.578.782.087,1.527-.426,2.192A40.509,40.509,0,0,1,188.945,21.489Z" transform="translate(-100.592)" fill="#fff"/>
    <path id="패스_3" data-name="패스 3" d="M40.239,35.864c-2.292-.454-1.679-1.776-1.4-3.192.343-1.762,1.24-2.417,2.957-2.233a14.285,14.285,0,0,0,2.07-.048c.582-.024,1.2-.128,1.388.651.291,1.208,1.243,2.247.942,3.587-.038.17-.46.291-.724.364-.374.1-.98.021-.911.547.087.665.748.377,1.15.364,2.69-.087,5.377-.211,8.064-.329a13.6,13.6,0,0,0,4.1-.412c-.409-.686-.976-.492-1.444-.544-.717-.08-1.229-.384-1.257-1.156-.059-1.669-.08-3.338-.114-5.01-.01-.485.222-.665.7-.776,2.334-.533,3.355.024,4.113,2.316.073.222.17.433.53.3V24.265c-1.454,2.541-1.589,2.593-4.373,2.562-.737-.007-1.049-.17-1.035-.942.028-1.381-.021-2.766-.031-4.148a1.154,1.154,0,0,1,.928-1.26,6.347,6.347,0,0,1,6.578,2.039c.256.3.287.918,1.108.772-.377-1.115-.731-2.188-1.1-3.262a.847.847,0,0,0-.935-.592q-5.095.156-10.19.3c-.291.007-.641.031-.668.388-.038.488.384.5.72.506.907.014,1.167.537,1.181,1.35.062,3.743.149,7.486.222,11.228a1.354,1.354,0,0,1-.987,1.572,2.238,2.238,0,0,1-3.1-1.381c-1.53-4.162-3.026-8.337-4.563-12.5-.159-.436-.17-1.191-.9-1.046-.641.128-1.468.1-1.769.876A28.773,28.773,0,0,0,40.2,24.4c-.6,2.5-1.264,4.982-1.977,7.448-.46,1.6-.613,3.407-2.545,4.238A9.76,9.76,0,0,0,40.239,35.864Zm.564-9.733c.339-1.156.686-2.309,1.195-4.006.9,2.448,1.607,4.446,2.368,6.423.308.8-.128.824-.713.9C39.681,29.923,39.681,29.929,40.8,26.131Z" transform="translate(-23.134 -12.301)" fill="#fff"/>
    <path id="패스_4" data-name="패스 4" d="M6.865,110.1a769.893,769.893,0,0,1,93.269-.218C93.854,107.292,10.286,107.458,6.865,110.1Z" transform="translate(-4.299 -70.219)" fill="#fff"/>
    <path id="패스_5" data-name="패스 5" d="M117.016,23.147c.042,2.192.132,4.387.007,6.572-.1,1.839,1.066,4.183-1.9,5.183,3.857.17,7.513.166,11.173.17a.771.771,0,0,0,.8-.53,12.859,12.859,0,0,0,1.226-3.483c-.609-.017-.779.412-1.025.7a6.9,6.9,0,0,1-6.326,2.455c-.959-.09-1.537-.391-1.537-1.43q.005-2.249,0-4.5c0-.506.08-.834.7-.963,2.095-.429,3.213.222,3.795,2.316l.031.1c.073.239.184.443.512.419a14.461,14.461,0,0,0-.038-5.941,2.36,2.36,0,0,0-.2-.506,6.657,6.657,0,0,0-.284.647c-.609,2.053-1.222,2.476-3.584,2.136-1.78-.256-.606-1.731-.918-2.6a3.2,3.2,0,0,1-.017-1.032c0-2.642.672-3.23,3.317-2.8a9.363,9.363,0,0,1,2.136.661c1.17.5,1.96,1.52,3.05,2.261a28.162,28.162,0,0,0-.782-2.753,1.285,1.285,0,0,0-1.492-1.063c-3.113.059-6.229.045-9.341.083-.419,0-.956-.211-1.2.391C116.943,20.7,116.967,20.7,117.016,23.147Z" transform="translate(-75.069 -12.132)" fill="#fff"/>
    <path id="패스_6" data-name="패스 6" d="M6.775,83.046a897.1,897.1,0,0,1,93.609-.01A627.618,627.618,0,0,0,6.775,83.046Z" transform="translate(-4.24 -52.742)" fill="#fff"/>
    <path id="패스_7" data-name="패스 7" d="M8.7,39a5.624,5.624,0,0,0,4.543-5.152c-.506.668-.963,1.378-1.523,1.994-2.753,3-6.582,2.278-7.908-1.527a10.535,10.535,0,0,1,.1-7.776c1.4-3.327,3.9-3.93,6.748-1.728.7.544,1.1,1.454,2.008,1.762a1.043,1.043,0,0,0-.08-1.215c-.727-.99,0-3.777-2.794-2.316-.18.093-.537-.152-.814-.229a6.165,6.165,0,0,0-6.433,1.942C-.173,27.64-.467,33.284,1.836,36.528A6.222,6.222,0,0,0,8.7,39Z" transform="translate(0 -14.35)" fill="#fff"/>
    <path id="패스_8" data-name="패스 8" d="M35.85,92.1a3.331,3.331,0,0,0-2.683-.1c-.8.274.2.9.073,1.447a10.327,10.327,0,0,0-.028,1.883c-.014.322-.315.734.114.907s1.129.249,1.278-.142c.409-1.077.859-.72,1.475-.253a1.5,1.5,0,0,0,1.766.073c-.519-.831-2.06-.793-1.655-2.147C36.384,93.109,36.536,92.482,35.85,92.1Zm-1.08,3.5c-.138-.19-.3-.315-.3-.436s.159-.249.246-.374c.1.114.274.222.291.35S34.881,95.4,34.77,95.6Z" transform="translate(-21.291 -59.591)" fill="#fff"/>
    <path id="패스_9" data-name="패스 9" d="M97.092,93.91a1.972,1.972,0,0,0,1.163-.083c.367-.184-.066-.46-.114-.7-.1-.474-.346-.966.2-1.537.744.62,1.475,1.236,2.212,1.842.26.211.53.547.886.395s.3-.582.294-.917a7.588,7.588,0,0,1-.021-2.219c.512-1.658-.381-1.323-1.43-1.122a2.465,2.465,0,0,1,.374,2.327,11.789,11.789,0,0,1-2.271-1.745c-.3-.229-.564-.679-1.011-.512-.5.184-.277.689-.3,1.059-.055.855-.042,1.714-.118,2.566C96.933,93.519,96.666,93.834,97.092,93.91Z" transform="translate(-63.129 -58.039)" fill="#fff"/>
    <path id="패스_10" data-name="패스 10" d="M56.649,91.587c.308.062.589.769.886.031a.563.563,0,0,0-.36-.828,3.866,3.866,0,0,0-3.449.506,1.958,1.958,0,0,0-.651,2.469c.492,1.184,1.551,1.426,2.683,1.465,1.236.087,1.929-.308,2-1.71.035-.71-.028-.952-.72-.914-.6.035-.976.093-.609.907.381.848-.277.973-.924.845-.983-.194-1.61-.824-1.368-1.828C54.472,91.126,55.621,91.375,56.649,91.587Z" transform="translate(-34.386 -58.831)" fill="#fff"/>
    <path id="패스_11" data-name="패스 11" d="M191.974,92.061a2.593,2.593,0,0,0-2.846-2.354,2.486,2.486,0,0,0-2.635,2.361,2.786,2.786,0,0,0,5.481-.007ZM187.7,91.8a1.242,1.242,0,0,1,1.472-1.274,1.471,1.471,0,0,1,1.579,1.506c-.038,1-.537,1.534-1.385,1.51A1.555,1.555,0,0,1,187.7,91.8Z" transform="translate(-121.732 -58.243)" fill="#fff"/>
    <path id="패스_12" data-name="패스 12" d="M13.562,95.183c.048-1.33-.945-2.209-2.51-2.226C9.4,92.939,8.2,93.912,8.164,95.29a2.246,2.246,0,0,0,2.5,2.257A2.67,2.67,0,0,0,13.562,95.183Zm-4.224-.159c.076-1,.765-1.364,1.669-1.295.963.073,1.361.713,1.406,1.61a1.408,1.408,0,0,1-1.607,1.42A1.465,1.465,0,0,1,9.338,95.024Z" transform="translate(-5.148 -60.367)" fill="#fff"/>
    <path id="패스_13" data-name="패스 13" d="M168.6,90.483c.315.26.575.45.744-.066a.685.685,0,0,0-.478-.959,3.628,3.628,0,0,0-3.58.6,2.091,2.091,0,0,0,.2,3.189c1.039.834,3.2.873,3.767.048a.49.49,0,0,0-.1-.675,1.3,1.3,0,0,0-.4.111,1.825,1.825,0,0,1-2.593-.422,1.214,1.214,0,0,1-.028-1.735A1.7,1.7,0,0,1,168.6,90.483Z" transform="translate(-107.443 -57.949)" fill="#fff"/>
    <path id="패스_14" data-name="패스 14" d="M251.466,92.729c-.377-.786-1.129-.3-1.607-.5-1.212-.028-1.195-.031-1.094,1.212a10.542,10.542,0,0,1,0,1.551c-.1,1.492.585,2.06,2.067,1.724.381-.087.692-.267.644-.658-.076-.6-.474-.246-.765-.18-.364.08-.713.069-.783-.395-.045-.3.073-.661.409-.623C252.557,95.115,250.126,92.927,251.466,92.729Z" transform="translate(-162.417 -59.891)" fill="#fff"/>
    <path id="패스_15" data-name="패스 15" d="M139.277,90.146c.287.166.54.828.89.145a.677.677,0,0,0-.519-1.049c-1.2-.177-2.431-.336-3.438.6a1.945,1.945,0,0,0-.53,2.358c.547,1.239,1.655,1.489,2.974,1.506.433-.093,1.1.159,1.409-.533.083-.184.135-.537.038-.62-.509-.44-.727.329-1.181.336a2.049,2.049,0,0,1-2.06-.966,1.25,1.25,0,0,1,.19-1.6A1.755,1.755,0,0,1,139.277,90.146Z" transform="translate(-88.387 -57.851)" fill="#fff"/>
    <path id="패스_16" data-name="패스 16" d="M76.421,94.233c.284-1.281,1.073-1.063,1.586-.2.457.769.938.9,1.922.533A10.582,10.582,0,0,1,78.069,91.6c-.235-.419-.263-1.136-.907-1.1-.516.031-.554.661-.741,1.059a17.815,17.815,0,0,1-1.586,3.251C75.393,94.649,76.151,95.452,76.421,94.233Z" transform="translate(-48.735 -58.763)" fill="#fff"/>
    <path id="패스_17" data-name="패스 17" d="M269.613,93.819c-.332-.814-1.077-.419-1.638-.533a7.818,7.818,0,0,0-1.361-.014,9.475,9.475,0,0,1,.3,1.281,8.178,8.178,0,0,0-.01,1.364c.156.582-.734,1.264.045,1.652a4.932,4.932,0,0,0,1.859.2c.44.021.862-.152.786-.661-.083-.554-.5-.225-.8-.173-.364.059-.7-.007-.786-.436-.062-.294,0-.7.336-.637C270.6,96.284,268.44,94.023,269.613,93.819Zm-1,1.129a.385.385,0,0,1-.429-.388c-.021-.284.163-.35.3-.415.371.069.609.232.606.54C269.091,94.965,268.817,94.955,268.613,94.948Z" transform="translate(-174.114 -60.558)" fill="#fff"/>
    <path id="패스_18" data-name="패스 18" d="M230.124,95.495a1.905,1.905,0,0,0,1.17.035c.533-.177.1-.533.031-.821-.1-.409-.132-.938.415-.893,2.119.184.021-1.842,1.156-2.136-.332-.848-1.087-.339-1.555-.457-1.278-.4-1.572-.01-1.264,1.195a7.43,7.43,0,0,1-.035,2.212C230.027,94.938,229.635,95.322,230.124,95.495Zm1.787-3.41a.457.457,0,0,1,.429.447c.007.332-.27.28-.461.332-.249-.014-.481-.055-.505-.339C231.349,92.15,231.581,92.026,231.91,92.085Z" transform="translate(-150.097 -59.135)" fill="#fff"/>
    <path id="패스_19" data-name="패스 19" d="M214.089,91.44c.315.114.585.066.651-.3.08-.471-.246-.575-.623-.6l-1.423-.1c-.772-.152-1.146.045-.782,1.188a4.21,4.21,0,0,1-.045,2.386c-.4,1.271.859,1,.942.859.488-.831.492-2.008,1.79-2.185a.552.552,0,0,0-.564-.519c-.37-.028-.949.083-.831-.53C213.271,91.27,213.739,91.315,214.089,91.44Z" transform="translate(-138.259 -58.694)" fill="#fff"/>
    <path id="패스_20" data-name="패스 20" d="M122.919,89.564a1.954,1.954,0,0,0-1.153.035c-.391.145-.024.457-.007.706a6.448,6.448,0,0,1,.045,2.212c-.5,1.665.422,1.447,1.544,1.319a6.25,6.25,0,0,1-.343-3.556C123.033,90.011,123.272,89.668,122.919,89.564Z" transform="translate(-79.299 -58.103)" fill="#fff"/>
  </g>
</svg>
