<svg xmlns="http://www.w3.org/2000/svg" width="98.438" height="39.576" viewBox="0 0 98.438 39.576">
  <g id="logo_b" transform="translate(-0.293 -0.615)">
    <path id="패스_2" data-name="패스 2" d="M194.9,17.857c1.274-1.448,2.621-2.831,3.989-4.3-1.25-.4-2.551.541-3.319-.049-1.923-1.473-3.619-.7-5.371.07-1.016.447-1.958,1.054-3.249,1.759,1.494-3.944,1.571-7.347-.471-10.844-.475-.81-1.033-.866-1.5-1.257-5.574-4.6-17.26-3.033-23.06,3.8-1.941,2.286-2.394,4.981-1.169,6.534,1.3,1.647,4.031,1.854,6.782.743,1.382-.555,2.38-1.7,3.9-2.112a44.688,44.688,0,0,1-5.183,7.256,2.593,2.593,0,0,1-2.925.852,15.135,15.135,0,0,0-6.9-.468c-1.026.2-2.265.412-2.258,1.749.007,1.253,1.229,1.389,2.174,1.613a13.584,13.584,0,0,0,7.2-.593,4,4,0,0,1,2.7.011,17.479,17.479,0,0,0,16.443-2.087c.126-.059.248-.119.373-.181-.007.181-.011.366-.017.548,0,1.836.51,3,1.455,3.41a2.265,2.265,0,0,0,1.086.16,5.145,5.145,0,0,0,1.864-.583,9.354,9.354,0,0,0,1.421-.942c.272-.209.544-.419.824-.618.028-.021.063-.045.1-.07.1-.08.22-.168.244-.147.2.154.122.359.014.544.132,1.134.408,1.794.967,2.077a1.511,1.511,0,0,0,.419.132,3.921,3.921,0,0,0,1.48-.126,6.312,6.312,0,0,0,4.677-3.983c-1.131.82-2.443,1.8-3.79,2.726-.367.255-.862.51-1.3.171s-.286-.855-.182-1.3A10.423,10.423,0,0,1,194.9,17.857ZM156.831,22.74c-.677-.1-1.462-.422-1.379-1.295.08-.834.866-1.037,1.567-1.11a11.837,11.837,0,0,1,6.153,1.389A9.039,9.039,0,0,1,156.831,22.74ZM171.239,11.5c-.412-.318-.625.017-.855.2a16.01,16.01,0,0,1-3.448,2,2.931,2.931,0,0,1-3.323-.359,3,3,0,0,1-1.187-3.068,6.812,6.812,0,0,1,1.459-3.305,16.334,16.334,0,0,1,16.16-5.393,6.259,6.259,0,0,1,3.515,2.07c-5,.949-8.45,3.934-11.287,7.783C171.885,11.959,171.833,11.959,171.239,11.5Zm7.368,10.073c-3.776,2.394-7.546,1.438-11.5-.283,3.818-2.663,6.077-6.328,8.527-9.843,1.745-2.506,3.295-5.225,6.282-6.569,2.237-1.005,2.768-.792,3.546,1.511a8.74,8.74,0,0,1,.2,4.468,15.442,15.442,0,0,1-7.05,10.715Zm10.617.08a5.711,5.711,0,0,1-2.213,1.358c-1.152.318-1.787-.15-1.825-1.389a4.754,4.754,0,0,1,.3-.988,18.491,18.491,0,0,1,6.8-7.075c.743-.44,1.689-.838,2.363.077.583.789.087,1.539-.429,2.209a40.833,40.833,0,0,1-4.995,5.808Z" transform="translate(-100.159 0)" fill="#1d1d1d"/>
    <path id="패스_3" data-name="패스 3" d="M40.275,36c-2.311-.457-1.693-1.791-1.414-3.218.346-1.777,1.25-2.436,2.981-2.251a14.432,14.432,0,0,0,2.087-.049c.586-.024,1.211-.129,1.4.656.293,1.218,1.253,2.265.949,3.616-.038.171-.464.293-.729.366-.377.1-.988.021-.918.551.087.67.754.38,1.159.366,2.712-.087,5.42-.213,8.129-.332a13.713,13.713,0,0,0,4.129-.415c-.412-.691-.984-.5-1.455-.548-.722-.08-1.239-.387-1.267-1.166-.059-1.682-.08-3.365-.115-5.05-.011-.489.223-.67.708-.782,2.352-.537,3.382.024,4.146,2.335.073.223.171.436.534.307v-6.08c-1.466,2.562-1.6,2.614-4.408,2.583-.743-.007-1.058-.171-1.044-.949.028-1.393-.021-2.789-.031-4.181a1.163,1.163,0,0,1,.935-1.27,6.4,6.4,0,0,1,6.631,2.056c.258.3.29.925,1.117.779-.38-1.124-.736-2.206-1.11-3.288a.854.854,0,0,0-.942-.6q-5.136.157-10.272.3c-.293.007-.646.031-.674.391-.038.492.387.5.726.51.914.014,1.176.541,1.19,1.361.063,3.773.15,7.546.223,11.319a1.365,1.365,0,0,1-.995,1.585,2.255,2.255,0,0,1-3.124-1.393c-1.543-4.2-3.05-8.4-4.6-12.6-.161-.44-.171-1.2-.907-1.054-.646.129-1.48.1-1.784.883a29,29,0,0,0-1.3,3.7c-.6,2.524-1.274,5.023-1.993,7.508-.464,1.613-.618,3.434-2.565,4.272A9.837,9.837,0,0,0,40.275,36Zm.569-9.811c.342-1.166.691-2.328,1.2-4.038.9,2.468,1.62,4.482,2.387,6.474.311.806-.129.831-.719.9-4,.482-4,.489-2.872-3.34Z" transform="translate(-23.032 -12.254)" fill="#1d1d1d"/>
    <path id="패스_4" data-name="패스 4" d="M6.865,110.114a776.03,776.03,0,0,1,94.02-.22C94.554,107.286,10.313,107.454,6.865,110.114Z" transform="translate(-4.277 -69.922)" fill="#1d1d1d"/>
    <path id="패스_5" data-name="패스 5" d="M117.034,23.179c.042,2.209.132,4.422.007,6.625-.1,1.854,1.075,4.216-1.916,5.225,3.888.171,7.574.168,11.263.171a.777.777,0,0,0,.8-.534,12.961,12.961,0,0,0,1.236-3.511c-.614-.017-.785.415-1.033.709a6.951,6.951,0,0,1-6.377,2.475c-.967-.091-1.55-.394-1.55-1.441q.005-2.267,0-4.534c0-.51.08-.841.709-.97,2.112-.433,3.239.223,3.825,2.335l.031.1c.073.241.185.447.517.422a14.577,14.577,0,0,0-.038-5.989,2.38,2.38,0,0,0-.2-.51,6.651,6.651,0,0,0-.286.653c-.614,2.07-1.232,2.5-3.612,2.153-1.794-.258-.611-1.745-.925-2.625a3.23,3.23,0,0,1-.017-1.04c0-2.663.677-3.256,3.344-2.82a9.439,9.439,0,0,1,2.154.667c1.18.5,1.975,1.532,3.075,2.279a28.388,28.388,0,0,0-.789-2.775,1.3,1.3,0,0,0-1.5-1.072c-3.138.059-6.279.045-9.417.084-.422,0-.963-.213-1.207.394C116.961,20.712,116.985,20.712,117.034,23.179Z" transform="translate(-74.748 -12.083)" fill="#1d1d1d"/>
    <path id="패스_6" data-name="패스 6" d="M6.775,83.061a904.306,904.306,0,0,1,94.363-.011A632.7,632.7,0,0,0,6.775,83.061Z" transform="translate(-4.219 -52.52)" fill="#1d1d1d"/>
    <path id="패스_7" data-name="패스 7" d="M8.773,39.132a5.669,5.669,0,0,0,4.579-5.193c-.51.674-.97,1.389-1.536,2.01-2.775,3.023-6.635,2.3-7.972-1.539a10.619,10.619,0,0,1,.1-7.839c1.414-3.354,3.927-3.961,6.8-1.742.709.548,1.106,1.466,2.024,1.777a1.051,1.051,0,0,0-.08-1.225c-.733-1,0-3.808-2.817-2.335-.181.094-.541-.154-.82-.23a6.214,6.214,0,0,0-6.485,1.958c-2.743,2.907-3.04,8.6-.719,11.867A6.271,6.271,0,0,0,8.773,39.132Z" transform="translate(0 -14.291)" fill="#1d1d1d"/>
    <path id="패스_8" data-name="패스 8" d="M35.875,92.1a3.358,3.358,0,0,0-2.7-.1c-.8.276.2.907.073,1.459a10.409,10.409,0,0,0-.028,1.9c-.014.325-.318.74.115.914s1.138.251,1.288-.143c.412-1.086.866-.726,1.487-.255a1.508,1.508,0,0,0,1.78.073c-.524-.838-2.077-.8-1.668-2.164C36.412,93.12,36.566,92.488,35.875,92.1Zm-1.089,3.525c-.14-.192-.3-.318-.3-.44s.161-.251.248-.377c.1.115.276.223.293.353S34.9,95.427,34.786,95.629Z" transform="translate(-21.196 -59.34)" fill="#1d1d1d"/>
    <path id="패스_9" data-name="패스 9" d="M97.094,93.945a1.987,1.987,0,0,0,1.173-.084c.37-.185-.066-.464-.115-.709-.1-.478-.349-.974.2-1.55.75.625,1.487,1.246,2.23,1.857.262.213.534.551.893.4s.3-.586.3-.925a7.652,7.652,0,0,1-.021-2.237c.517-1.672-.384-1.333-1.441-1.131a2.484,2.484,0,0,1,.377,2.345,11.881,11.881,0,0,1-2.29-1.759c-.307-.23-.569-.684-1.019-.517-.5.185-.279.695-.3,1.068-.056.862-.042,1.728-.119,2.586C96.933,93.551,96.665,93.869,97.094,93.945Z" transform="translate(-62.856 -57.792)" fill="#1d1d1d"/>
    <path id="패스_10" data-name="패스 10" d="M56.68,91.6c.311.063.593.775.894.031a.567.567,0,0,0-.363-.834,3.9,3.9,0,0,0-3.476.51,1.973,1.973,0,0,0-.656,2.489c.5,1.194,1.564,1.438,2.7,1.476,1.246.087,1.944-.311,2.014-1.724.035-.715-.028-.96-.726-.922-.607.035-.984.094-.614.914.384.855-.279.981-.932.852-.991-.2-1.623-.831-1.379-1.843C54.485,91.131,55.644,91.382,56.68,91.6Z" transform="translate(-34.236 -58.583)" fill="#1d1d1d"/>
    <path id="패스_11" data-name="패스 11" d="M192.018,92.08a2.614,2.614,0,0,0-2.869-2.373,2.507,2.507,0,0,0-2.656,2.38,2.808,2.808,0,0,0,5.525-.007Zm-4.307-.262a1.252,1.252,0,0,1,1.483-1.284,1.482,1.482,0,0,1,1.592,1.518c-.038,1.012-.541,1.546-1.4,1.522A1.567,1.567,0,0,1,187.711,91.818Z" transform="translate(-121.209 -57.997)" fill="#1d1d1d"/>
    <path id="패스_12" data-name="패스 12" d="M13.606,95.2c.049-1.34-.953-2.227-2.53-2.244-1.665-.017-2.879.963-2.911,2.352a2.264,2.264,0,0,0,2.52,2.276A2.691,2.691,0,0,0,13.606,95.2Zm-4.258-.161c.077-1.005.771-1.375,1.682-1.305.97.073,1.372.719,1.417,1.623a1.419,1.419,0,0,1-1.62,1.431,1.477,1.477,0,0,1-1.48-1.749Z" transform="translate(-5.123 -60.113)" fill="#1d1d1d"/>
    <path id="패스_13" data-name="패스 13" d="M168.628,90.494c.318.262.579.454.75-.066a.691.691,0,0,0-.482-.967,3.657,3.657,0,0,0-3.609.6,2.108,2.108,0,0,0,.2,3.215c1.047.841,3.225.88,3.8.049a.494.494,0,0,0-.1-.681,1.306,1.306,0,0,0-.4.112,1.84,1.84,0,0,1-2.614-.426,1.223,1.223,0,0,1-.028-1.749A1.713,1.713,0,0,1,168.628,90.494Z" transform="translate(-106.981 -57.705)" fill="#1d1d1d"/>
    <path id="패스_14" data-name="패스 14" d="M251.489,92.734c-.38-.792-1.138-.3-1.619-.5-1.222-.028-1.2-.031-1.1,1.222a10.63,10.63,0,0,1,0,1.564c-.1,1.5.59,2.077,2.084,1.738.384-.087.7-.269.649-.663-.077-.607-.478-.248-.771-.181-.366.08-.719.07-.789-.4-.045-.3.073-.667.412-.628C252.588,95.139,250.138,92.933,251.489,92.734Z" transform="translate(-161.721 -59.638)" fill="#1d1d1d"/>
    <path id="패스_15" data-name="패스 15" d="M139.308,90.154c.29.168.544.834.9.147a.682.682,0,0,0-.524-1.058c-1.211-.178-2.45-.339-3.466.6a1.96,1.96,0,0,0-.534,2.377c.551,1.249,1.668,1.5,3,1.518.436-.094,1.11.161,1.421-.537.084-.185.136-.541.038-.625-.513-.443-.733.332-1.19.338a2.066,2.066,0,0,1-2.077-.974,1.26,1.26,0,0,1,.192-1.609A1.769,1.769,0,0,1,139.308,90.154Z" transform="translate(-88.007 -57.606)" fill="#1d1d1d"/>
    <path id="패스_16" data-name="패스 16" d="M76.434,94.263c.286-1.291,1.082-1.071,1.6-.2.461.775.946.907,1.937.537a10.665,10.665,0,0,1-1.874-2.991c-.237-.422-.265-1.145-.914-1.106-.52.031-.558.667-.747,1.068a17.957,17.957,0,0,1-1.6,3.277C75.4,94.682,76.161,95.491,76.434,94.263Z" transform="translate(-48.524 -58.515)" fill="#1d1d1d"/>
    <path id="패스_17" data-name="패스 17" d="M269.638,93.824c-.335-.82-1.086-.422-1.651-.537a7.88,7.88,0,0,0-1.372-.014,9.551,9.551,0,0,1,.3,1.291,8.254,8.254,0,0,0-.011,1.375c.157.586-.74,1.274.045,1.665a4.971,4.971,0,0,0,1.874.2c.443.021.869-.154.792-.667-.084-.558-.5-.227-.8-.175-.366.059-.7-.007-.792-.44-.063-.3,0-.705.339-.642C270.63,96.309,268.455,94.03,269.638,93.824Zm-1.009,1.138a.388.388,0,0,1-.433-.391c-.021-.286.164-.353.307-.419.374.07.614.234.611.544C269.111,94.979,268.836,94.969,268.63,94.962Z" transform="translate(-173.369 -60.302)" fill="#1d1d1d"/>
    <path id="패스_18" data-name="패스 18" d="M230.126,95.531a1.921,1.921,0,0,0,1.18.035c.537-.178.1-.537.031-.827-.1-.412-.132-.946.419-.9,2.136.185.021-1.857,1.166-2.153-.335-.855-1.1-.342-1.567-.461-1.288-.4-1.585-.011-1.274,1.2a7.487,7.487,0,0,1-.035,2.23C230.028,94.97,229.634,95.357,230.126,95.531Zm1.8-3.438a.46.46,0,0,1,.433.45c.007.335-.272.283-.464.335-.251-.014-.485-.056-.51-.342C231.362,92.16,231.6,92.034,231.927,92.094Z" transform="translate(-149.454 -58.886)" fill="#1d1d1d"/>
    <path id="패스_19" data-name="패스 19" d="M214.106,91.449c.318.115.59.066.656-.3.08-.475-.248-.579-.628-.6l-1.435-.1c-.779-.154-1.155.045-.789,1.2a4.244,4.244,0,0,1-.045,2.4c-.4,1.281.866,1.005.949.866.492-.838.5-2.024,1.8-2.2a.556.556,0,0,0-.569-.524c-.373-.028-.956.084-.838-.534C213.283,91.278,213.754,91.323,214.106,91.449Z" transform="translate(-137.665 -58.448)" fill="#1d1d1d"/>
    <path id="패스_20" data-name="패스 20" d="M122.929,89.562a1.97,1.97,0,0,0-1.162.035c-.394.147-.024.461-.007.712a6.5,6.5,0,0,1,.045,2.23c-.5,1.679.426,1.459,1.557,1.33a6.3,6.3,0,0,1-.346-3.584C123.045,90.013,123.285,89.667,122.929,89.562Z" transform="translate(-78.958 -57.856)" fill="#1d1d1d"/>
  </g>
</svg>
