<svg width="133" height="34" viewBox="0 0 133 34" fill="none" xmlns="http://www.w3.org/2000/svg">
<path d="M114.722 33.1393C114.386 33.2071 114.049 33.3312 113.712 33.3312C112.915 33.3199 112.129 33.2296 111.331 33.2071C110.253 33.1732 109.164 32.135 109.187 31.0743C109.209 30.2505 109.299 29.438 109.322 28.6142C109.344 27.7002 109.097 27.3278 108.199 27.2601C107.525 27.2149 106.806 27.3391 106.144 27.4971C105.066 27.7679 105.279 28.7496 105.616 29.7088C106.043 30.9276 107.154 31.4805 108.03 32.2704C108.21 32.4397 108.322 32.6767 108.468 32.8911C108.232 33.0491 107.997 33.3312 107.761 33.3312C106.638 33.3312 105.504 33.3425 104.403 33.1619C103.932 33.0829 103.528 32.5525 103.101 32.214C102.214 31.4692 101.394 30.6116 100.417 30.0135C99.9795 29.7427 99.2047 29.8894 98.6208 30.0022C98.1043 30.1038 97.8124 30.5439 97.8573 31.1081C97.9022 31.6385 97.9359 32.1689 98.6545 32.2817C98.8342 32.3156 98.9577 32.6315 99.1149 32.8121C98.9015 32.9024 98.6994 33.0265 98.4861 33.0716C98.1941 33.1393 97.891 33.1845 97.599 33.1845C96.8916 33.1845 96.1842 33.1619 95.4769 33.1506C95.3197 33.1506 95.1737 33.1168 95.0165 33.1393C94.208 33.2071 93.8263 32.8459 93.9049 32.214C94.0172 31.3225 94.1631 30.431 94.3765 29.5508C94.5898 28.6819 95.0614 27.8356 95.1063 26.9667C95.1625 26.1203 94.8817 25.2289 94.6572 24.3825C94.3989 23.4233 93.9273 22.5206 93.7252 21.5614C93.4221 20.1734 93.3547 18.7741 94.3203 17.5328C94.7582 16.9685 95.0053 16.2576 95.4769 15.7385C96.4313 14.7003 97.2285 13.5832 98.7331 13.0415C99.8784 12.6353 101.012 12.5337 102.147 12.2967C102.214 12.2854 102.293 12.2742 102.36 12.2967C103.55 12.7594 104.796 12.8158 106.054 12.9174C106.649 12.9625 107.244 13.0979 107.851 13.1318C108.929 13.1995 110.006 13.3123 111.073 13.2672C112.6 13.1995 114.139 13.0641 115.654 12.8497C117.114 12.6353 118.518 12.7368 119.944 13.0528C121.022 13.2898 122.144 13.5944 123.222 13.5267C124.457 13.4477 125.592 13.5832 126.625 14.17C128.702 15.3548 130.79 16.5059 132.654 18.0293C133.137 18.4242 133.137 19.0675 132.508 19.3947C131.621 19.8687 130.667 20.2072 129.712 20.5345C128.32 21.0197 126.849 21.3018 125.524 21.9225C124.098 22.5883 122.818 23.5926 121.437 24.3712C120.707 24.7888 120.033 25.2063 119.584 25.9511C119.236 26.5266 119.146 27.0118 119.494 27.6325C119.843 28.2531 120.157 28.9302 120.325 29.6186C120.572 30.6116 121.269 31.1194 122.066 31.5934C122.448 31.819 122.841 31.9996 123.211 32.2479C123.391 32.372 123.604 32.5977 123.593 32.7557C123.582 32.9249 123.335 33.1958 123.155 33.2183C122.582 33.3086 122.01 33.3086 121.426 33.3199C121.145 33.3199 120.864 33.2071 120.595 33.2296C119.259 33.3763 118.349 32.7331 117.44 31.8303C116.642 31.0291 115.654 30.431 114.722 29.7878C114.498 29.6298 114.139 29.5396 113.891 29.596C113.409 29.7088 112.769 29.6975 112.713 30.4423C112.656 31.1758 113.094 31.7852 113.802 32.1124C114.161 32.2817 114.453 32.609 114.779 32.8572C114.767 32.9362 114.745 33.0378 114.722 33.1393Z" fill="#1D1D1D"/>
<path d="M6.68242 4.34099C7.60315 3.83319 8.40037 3.57364 8.74845 2.76115C9.29865 1.46342 10.4103 0.955619 11.6454 0.639651C12.0047 0.549374 12.4201 0.741212 12.8131 0.752496C14.6209 0.808919 16.4399 1.05718 17.8323 2.23078C19.1123 3.3141 20.3923 4.43127 21.0997 6.10139C21.7847 7.7038 22.0991 9.27236 21.9643 11.0215C21.8408 12.59 21.4927 14.0119 20.7741 15.4112C20.2239 16.4832 20.179 17.5891 20.965 18.7514C21.5264 19.5865 21.6387 20.7488 21.9194 21.7644C22.3685 23.4571 21.9306 25.1159 21.6275 26.7747C21.605 26.8876 21.5489 27.0004 21.4927 27.0907C20.8752 28.1176 20.3811 29.2686 19.5839 30.1376C18.6968 31.108 17.5965 31.9092 16.2827 32.3606C14.6771 32.9136 13.0377 33.1618 11.3759 33.1957C8.18703 33.2521 5.00938 33.2182 1.8205 33.207C1.57348 33.207 1.31522 33.1505 1.0682 33.1167C0.349579 33.0038 0.0913243 32.6202 0.0913243 31.8528C0.113781 22.1029 0.113781 12.353 0.102553 2.61445C0.102553 2.21949 0.0464106 1.82453 0.00149686 1.42957C-0.0321885 0.921766 0.506777 0.357536 1.20294 0.334967C2.06753 0.312398 2.93212 0.436528 3.79671 0.436528C4.27953 0.436528 4.77358 0.380105 5.24518 0.289828C6.24451 0.0979905 6.7947 0.696073 6.67119 1.72297C6.57013 2.52418 6.67119 3.33667 6.68242 4.34099ZM10.3878 19.609C10.3878 19.6316 10.3878 19.6542 10.3878 19.6767C9.72532 19.6767 9.06285 19.6767 8.40037 19.6767C7.2663 19.6767 6.81716 20.0153 6.65996 21.1099C6.59259 21.6177 6.68242 22.1481 6.70487 22.6559C6.72733 23.0283 6.77225 23.4007 6.76102 23.7731C6.74979 24.2131 6.62628 24.6532 6.64873 25.0933C6.69365 26.3685 7.24384 27.0907 8.29931 27.0907C10.0285 27.0907 11.7801 27.1359 13.4644 26.8537C14.2279 26.7183 15.1037 25.9623 15.4967 25.2513C15.8897 24.5404 15.8336 23.5248 15.8336 22.6446C15.8336 21.2453 14.6883 19.9814 13.3297 19.8122C12.3528 19.7106 11.3647 19.6767 10.3878 19.609ZM10.1071 6.89131C10.1071 6.92516 10.0959 6.9703 10.0959 7.00416C9.45584 7.00416 8.82705 7.00416 8.18703 7.00416C7.31121 7.01544 6.78347 7.52325 6.78347 8.39216C6.77225 9.57704 6.78347 10.7732 6.78347 11.9581C6.78347 13.064 7.1877 13.4477 8.32177 13.4138C9.70287 13.3687 11.0952 13.301 12.4763 13.2784C14.1156 13.2558 15.2722 12.3869 15.6652 10.8183C16.0919 9.14823 15.2385 7.62481 13.5767 7.29756C12.4314 7.07186 11.2636 7.01544 10.1071 6.89131Z" fill="#1D1D1D"/>
<path d="M68.6748 17.465C68.6748 12.8835 68.6748 8.30194 68.6748 3.73168C68.6748 2.89662 68.6748 2.06156 68.6748 1.2265C68.6748 0.617135 69.2362 0.143183 69.8313 0.165752C71.1675 0.222175 72.5037 0.278597 73.8399 0.301167C74.929 0.323736 75.3445 0.87668 75.0975 1.93743C74.9964 2.38881 74.9178 2.86277 74.929 3.32543C74.9403 3.59626 75.0975 4.03636 75.2771 4.0815C75.5242 4.14921 75.9284 4.01379 76.1417 3.82196C76.7817 3.24644 77.3768 2.62579 77.972 2.00514C79.1173 0.808972 80.5545 0.650989 82.0816 0.786404C82.6093 0.831542 83.1932 0.775119 83.676 0.966957C85.4838 1.65532 87.2803 2.52423 88.4369 4.09279C89.3688 5.34537 90.1324 6.74466 90.3794 8.4035C90.7499 10.841 90.4131 13.0866 89.2341 15.242C88.6502 16.3027 87.954 17.228 87.0109 17.9841C86.427 18.4468 86.427 18.9659 86.8986 19.6994C88.0439 21.4598 88.7962 23.3668 88.9085 25.4771C89.032 27.8807 89.773 30.0022 91.3113 31.8641C91.5134 32.1124 91.6594 32.7218 91.5247 32.8572C91.244 33.128 90.7611 33.3086 90.3682 33.3199C89.1667 33.3424 87.9765 33.2296 86.775 33.2183C85.8543 33.207 85.0796 33.0152 84.6641 32.0673C84.1925 31.0178 83.5188 30.0248 83.2269 28.9302C82.9462 27.8807 83.0809 26.7409 82.9574 25.6463C82.7553 23.8521 82.0254 22.3287 80.8015 20.9632C79.4541 19.4511 77.7586 19.5301 76.0407 19.5865C75.7375 19.5978 75.2547 20.0153 75.1985 20.3087C75.0076 21.2679 74.929 22.2497 74.9066 23.2201C74.8841 24.1116 75.0189 25.0031 75.0301 25.8946C75.0526 27.7227 75.0413 29.5508 75.0301 31.3789C75.0301 31.7287 74.929 32.0673 74.8954 32.4171C74.8504 32.9926 74.4574 33.1844 73.9859 33.1957C72.5711 33.2296 71.1563 33.2183 69.7415 33.1957C69.0117 33.1844 68.6636 32.7105 68.6636 31.7851C68.6636 29.3364 68.6636 26.8989 68.6636 24.4502C68.6748 22.1143 68.6748 19.7896 68.6748 17.465ZM77.8821 7.43302C77.3207 7.43302 76.7368 7.36531 76.1866 7.45559C75.8273 7.5233 75.3333 7.76028 75.2098 8.05367C74.9852 8.56148 74.9515 9.17085 74.9178 9.74636C74.8729 10.525 74.9515 11.3149 74.8954 12.0936C74.8504 12.7142 75.2547 13.4026 75.8385 13.4026C77.7698 13.4138 79.7124 13.4477 81.6436 13.3913C83.137 13.3461 83.676 12.906 84.0914 11.4616C84.215 11.0215 84.2374 10.5476 84.2374 10.0849C84.2599 8.68561 82.9798 7.42174 81.5763 7.42174C80.3524 7.43302 79.1173 7.43302 77.8821 7.43302Z" fill="#1D1D1D"/>
<path d="M44.4548 26.4363C44.4548 24.5405 44.4548 22.6447 44.4548 20.7488C44.4548 14.2941 44.4548 7.83928 44.4548 1.3845C44.4548 0.617149 44.7355 0.323749 45.499 0.323749C46.7229 0.312464 47.9581 0.323749 49.182 0.323749C49.4402 0.323749 49.7209 0.346318 49.9455 0.267326C50.5406 0.0416347 51.248 0.718709 51.248 1.40707C51.248 4.76987 51.248 8.14397 51.248 11.5068C51.248 11.755 51.1245 12.0146 51.1694 12.2403C51.3827 13.3687 52.0003 13.6508 53.3926 13.4251C53.9765 13.3236 54.5828 13.4139 55.178 13.4026C56.5591 13.3687 57.9401 13.38 59.31 13.2446C59.95 13.1769 60.2083 12.6352 60.0848 11.9356C60.0174 11.5858 60.1634 11.2021 60.1634 10.841C60.1746 7.80543 60.1634 4.76987 60.1634 1.73432C60.1634 0.605864 60.7697 0.188334 61.9038 0.30118C63.0379 0.402741 64.1832 0.323749 65.3285 0.335034C66.5524 0.335034 66.8218 0.662286 66.6983 1.85845C66.6534 2.32112 66.7882 2.79507 66.7882 3.25774C66.7882 3.78812 66.6871 4.32978 66.6871 4.86015C66.6759 12.6578 66.6871 20.4667 66.6871 28.2644C66.6871 29.5508 66.6983 30.8373 66.6871 32.1237C66.6759 33.0265 66.1032 33.3763 65.2162 33.2747C64.1382 33.1619 63.0491 33.2183 61.9712 33.2183C60.3655 33.207 60.0623 32.9475 60.0399 31.3225C60.0286 30.6229 60.1409 29.9232 60.1634 29.2236C60.1858 28.4675 60.1746 27.7001 60.1746 26.9328C60.1746 25.1498 60.1746 23.3782 60.1746 21.5952C60.1746 19.7219 59.6693 19.7558 58.1984 19.5978C56.9296 19.4511 55.6159 19.6768 54.3246 19.6881C53.6733 19.6994 53.0221 19.6204 52.3708 19.5527C51.787 19.485 51.4726 19.8348 51.3266 20.2975C51.1806 20.7601 51.1133 21.2566 51.1245 21.7419C51.1469 23.2766 51.2368 24.8113 51.248 26.3347C51.248 27.7227 51.1582 29.1107 51.1245 30.4987C51.1133 31.0968 51.1919 31.7062 51.102 32.2817C50.9561 33.2183 50.6978 33.286 49.7434 33.2409C48.4633 33.1732 47.1833 33.1845 45.9033 33.2296C44.6681 33.2747 44.3986 33.0378 44.4436 31.7287C44.4885 29.9458 44.4548 28.1967 44.4548 26.4363Z" fill="#1D1D1D"/>
<path d="M23.9181 16.5397C23.9181 11.4616 23.9181 6.38356 23.9181 1.31678C23.9181 0.414013 24.4234 0.165752 25.3104 0.278598C26.3996 0.414013 27.5336 0.380159 28.634 0.278598C29.7681 0.177036 30.3071 0.729981 30.1274 1.84716C30.0263 2.49038 30.1386 3.17874 30.2172 3.84453C30.2397 4.01379 30.5316 4.28462 30.6664 4.27334C30.9358 4.23949 31.239 4.0815 31.4187 3.87838C32.2833 2.88534 33.0693 1.82459 33.9788 0.865396C34.2707 0.549428 34.8321 0.346305 35.2813 0.335021C37.381 0.278598 39.4807 0.301167 41.5804 0.312452C42.4338 0.312452 42.7145 0.786404 42.6696 1.6666C42.6247 2.76121 42.7369 3.86709 42.7482 4.97298C42.7482 5.43565 42.7145 5.90961 42.6022 6.36099C42.4675 6.91393 41.9959 7.00421 41.4906 6.99292C38.2568 6.99292 35.023 7.00421 31.7892 6.98164C30.5541 6.98164 30.3071 7.24119 30.206 8.24551C30.0713 9.54324 30.0937 10.8635 30.206 12.1613C30.2846 13.1092 30.745 13.3913 31.7331 13.3913C34.2819 13.3913 36.8308 13.3913 39.3796 13.3913C40.3565 13.3913 40.6148 13.6734 40.6372 14.6326C40.6709 15.8513 40.727 17.0813 40.772 18.3001C40.8056 19.169 40.0533 19.7784 39.2112 19.5752C39.0091 19.5301 38.7958 19.5075 38.5824 19.5075C37.1452 19.5527 35.7192 19.6091 34.2819 19.6429C33.4286 19.6655 32.5752 19.6091 31.7218 19.6542C30.5878 19.7219 30.1499 20.2185 30.1499 21.3356C30.1499 22.5882 30.1386 23.8521 30.1611 25.1047C30.1723 25.5674 30.2172 26.0413 30.3183 26.4927C30.453 27.0682 30.9022 27.1923 31.4524 27.1923C34.6412 27.181 37.8189 27.1923 41.0078 27.181C42.4225 27.181 42.7931 27.5986 42.7594 28.964C42.7369 29.9119 42.7594 30.8598 42.7482 31.8077C42.7369 32.8008 42.3664 33.1619 41.3895 33.1619C35.9325 33.1619 30.4755 33.1619 25.0297 33.1619C24.1876 33.1619 23.9181 32.891 23.9181 32.0221C23.9068 26.8876 23.9181 21.708 23.9181 16.5397Z" fill="#1D1D1D"/>
</svg>
