<svg xmlns="http://www.w3.org/2000/svg" width="36" height="41" viewBox="0 0 36 41">
  <g id="pop_play" transform="translate(36) rotate(90)" fill="#fff">
    <path d="M 32.39894104003906 35.50000381469727 L 8.601059913635254 35.50000381469727 C 6.979810237884521 35.50000381469727 5.525459766387939 34.66321563720703 4.710659980773926 33.2615852355957 C 3.895859956741333 31.85996627807617 3.888370037078857 30.18207550048828 4.690629959106445 28.77323532104492 L 16.58956909179688 7.877535343170166 C 17.4001293182373 6.454105377197266 18.86197090148926 5.604305744171143 20.5 5.604305744171143 C 22.13802909851074 5.604305744171143 23.5998706817627 6.454105377197266 24.41043090820313 7.877535343170166 L 36.30936813354492 28.77323532104492 C 37.11162948608398 30.18207550048828 37.10414123535156 31.85996627807617 36.28934097290039 33.2615852355957 C 35.47454071044922 34.66321563720703 34.02019119262695 35.50000381469727 32.39894104003906 35.50000381469727 Z" stroke="none"/>
    <path d="M 20.5 6.104305267333984 C 19.04397010803223 6.104305267333984 17.74455070495605 6.859683990478516 17.02404975891113 8.124954223632813 L 5.125118255615234 29.02064514160156 C 4.412010192871094 30.27295684814453 4.418659210205078 31.7644157409668 5.142929077148438 33.01030731201172 C 5.867191314697266 34.25619506835938 7.159950256347656 35.00000762939453 8.601058959960938 35.00000762939453 L 32.39894104003906 35.00000762939453 C 33.84004974365234 35.00000762939453 35.13280868530273 34.25619506835938 35.85707092285156 33.01030731201172 C 36.58134078979492 31.7644157409668 36.58798980712891 30.27295684814453 35.8748779296875 29.02064514160156 L 23.97592926025391 8.124954223632813 C 23.25543975830078 6.859683990478516 21.95602989196777 6.104305267333984 20.5 6.104305267333984 M 20.49999809265137 5.104301452636719 C 22.19302558898926 5.104301452636719 23.88604927062988 5.946239471435547 24.84491920471191 7.630115509033203 L 36.74385833740234 28.52580642700195 C 38.64196014404297 31.85905456542969 36.2347297668457 36.00000762939453 32.39894104003906 36.00000762939453 L 8.601058959960938 36.00000762939453 C 4.765270233154297 36.00000762939453 2.358039855957031 31.85905456542969 4.256141662597656 28.52580642700195 L 16.15506935119629 7.630115509033203 C 17.11394500732422 5.946239471435547 18.80697250366211 5.104301452636719 20.49999809265137 5.104301452636719 Z" stroke="none" fill="#707070"/>
  </g>
</svg>
