<svg width="31" height="30" viewBox="0 0 31 30" fill="none" xmlns="http://www.w3.org/2000/svg">
<path d="M8.79046 0.102215C7.1891 0.170358 6.09881 0.425894 5.1448 0.800681C4.17377 1.1925 3.33901 1.70358 2.50426 2.53833C1.66951 3.37308 1.15843 4.20784 0.783646 5.19591C0.408858 6.14991 0.170358 7.2402 0.0851789 8.84157C0.0170358 10.4429 0 10.954 0 15.0256C0.0170358 19.0971 0.0340715 19.6082 0.102215 21.2095C0.170358 22.8109 0.425894 23.9012 0.800681 24.8382C1.1925 25.8262 1.70358 26.661 2.53833 27.4957C3.37308 28.3305 4.20784 28.8416 5.19591 29.2164C6.14991 29.5911 7.2402 29.8296 8.84157 29.9148C10.4429 29.983 10.954 30 15.0256 30C19.0971 29.983 19.6082 29.983 21.2095 29.8978C22.8109 29.8296 23.9012 29.5741 24.8552 29.1993C25.8433 28.8075 26.678 28.2964 27.5128 27.4617C28.3475 26.6269 28.8586 25.7922 29.2334 24.8041C29.6082 23.8501 29.8467 22.7598 29.9319 21.1584C30 19.5571 30.017 19.046 30.017 14.9744C30 10.9029 30 10.3918 29.9148 8.79046C29.8467 7.1891 29.5911 6.09881 29.2164 5.1448C28.8245 4.15673 28.3135 3.32198 27.4787 2.48722C26.644 1.65247 25.8092 1.1414 24.8211 0.76661C23.8671 0.391823 22.7768 0.153322 21.1755 0.068143C19.5571 0.0170357 19.046 0 14.9744 0C10.9029 0.0170358 10.3918 0.0340716 8.79046 0.102215ZM8.96082 27.2061C7.49574 27.138 6.7121 26.8995 6.18399 26.6951C5.48552 26.4225 4.99148 26.0988 4.46337 25.5707C3.93526 25.0426 3.61158 24.5486 3.33901 23.8501C3.13458 23.322 2.87905 22.5213 2.8109 21.0733C2.74276 19.4889 2.72572 19.0119 2.70869 15.0085C2.70869 11.0051 2.70869 10.5281 2.77683 8.94378C2.84497 7.4787 3.08348 6.69506 3.2879 6.16695C3.56048 5.46848 3.88416 4.97445 4.41227 4.44634C4.94037 3.91823 5.43441 3.59455 6.13288 3.32198C6.66099 3.11755 7.46167 2.87905 8.90971 2.79387C10.494 2.72572 10.971 2.70869 14.9574 2.69165C18.9608 2.69165 19.4378 2.69165 21.0221 2.7598C22.4872 2.82794 23.2709 3.06644 23.799 3.27087C24.4974 3.54344 25.0085 3.86712 25.5196 4.39523C26.0477 4.92334 26.3714 5.41738 26.644 6.11584C26.8484 6.64395 27.0869 7.44463 27.1721 8.89267C27.2402 10.477 27.2572 10.954 27.2743 14.9404C27.2913 18.9438 27.2743 19.4208 27.2061 21.0051C27.138 22.4702 26.8995 23.2538 26.6951 23.799C26.4225 24.4974 26.0988 24.9915 25.5707 25.5196C25.0426 26.0477 24.5486 26.3714 23.8501 26.644C23.322 26.8484 22.5213 27.0869 21.0733 27.1721C19.4889 27.2402 19.0119 27.2572 15.0085 27.2743C11.0221 27.2913 10.5451 27.2743 8.96082 27.2061ZM21.1925 6.98467C21.1925 7.97274 22.0102 8.77342 22.9983 8.77342C23.9864 8.77342 24.8041 7.95571 24.7871 6.96763C24.7871 5.97956 23.9693 5.17888 22.9813 5.17888C21.9932 5.17888 21.1925 5.99659 21.1925 6.98467ZM7.30835 15.0085C7.30835 19.2675 10.7666 22.6917 15.0256 22.6917C19.2675 22.6746 22.7087 19.2334 22.7087 14.9744C22.6917 10.7325 19.2504 7.27428 14.9915 7.29131C10.7325 7.30835 7.29131 10.7666 7.30835 15.0085ZM10 15.0085C10 12.2487 12.2317 10.017 14.9915 10C17.7513 10 20 12.2317 20 14.9915C20 17.7513 17.7683 20 15.0085 20C12.2487 20 10.017 17.7683 10 15.0085Z" fill="#3D3D3D" fill-opacity="0.6"/>
</svg>
