<svg width="30" height="30" viewBox="0 0 30 30" fill="none" xmlns="http://www.w3.org/2000/svg">
<path d="M8.78547 0.102215C7.18502 0.170358 6.09535 0.425894 5.14188 0.800681C4.1714 1.1925 3.33712 1.70358 2.50284 2.53833C1.66856 3.37308 1.15778 4.20784 0.783201 5.19591C0.408626 6.14991 0.170261 7.2402 0.0851305 8.84157C0.0170261 10.4429 0 10.954 0 15.0256C0.0170261 19.0971 0.0340522 19.6082 0.102157 21.2095C0.170261 22.8109 0.425653 23.9012 0.800227 24.8382C1.19183 25.8262 1.70261 26.661 2.53689 27.4957C3.37117 28.3305 4.20545 28.8416 5.19296 29.2164C6.14642 29.5911 7.2361 29.8296 8.83655 29.9148C10.437 29.983 10.9478 30 15.017 30C19.0863 29.983 19.5971 29.983 21.1975 29.8978C22.798 29.8296 23.8876 29.5741 24.8411 29.1993C25.8286 28.8075 26.6629 28.2964 27.4972 27.4617C28.3314 26.6269 28.8422 25.7922 29.2168 24.8041C29.5914 23.8501 29.8297 22.7598 29.9149 21.1584C29.983 19.5571 30 19.046 30 14.9744C29.983 10.9029 29.983 10.3918 29.8978 8.79046C29.8297 7.1891 29.5743 6.09881 29.1998 5.1448C28.8082 4.15673 28.2974 3.32198 27.4631 2.48722C26.6288 1.65247 25.7946 1.1414 24.807 0.76661C23.8536 0.391823 22.7639 0.153322 21.1635 0.068143C19.546 0.0170357 19.0352 0 14.9659 0C10.8967 0.0170358 10.3859 0.0340716 8.78547 0.102215ZM8.95573 27.2061C7.49149 27.138 6.70829 26.8995 6.18048 26.6951C5.48241 26.4225 4.98865 26.0988 4.46084 25.5707C3.93303 25.0426 3.60953 24.5486 3.33712 23.8501C3.1328 23.322 2.87741 22.5213 2.80931 21.0733C2.7412 19.4889 2.72418 19.0119 2.70715 15.0085C2.70715 11.0051 2.70715 10.5281 2.77526 8.94378C2.84336 7.47871 3.08173 6.69506 3.28604 6.16695C3.55846 5.46848 3.88195 4.97445 4.40976 4.44634C4.93757 3.91823 5.43133 3.59455 6.1294 3.32198C6.65721 3.11755 7.45743 2.87905 8.90465 2.79387C10.4881 2.72572 10.9648 2.70869 14.9489 2.69165C18.9501 2.69165 19.4268 2.69165 21.0102 2.7598C22.4745 2.82794 23.2577 3.06644 23.7855 3.27087C24.4835 3.54344 24.9943 3.86712 25.5051 4.39523C26.0329 4.92334 26.3564 5.41738 26.6288 6.11584C26.8331 6.64395 27.0715 7.44463 27.1566 8.89267C27.2247 10.477 27.2418 10.954 27.2588 14.9404C27.2758 18.9438 27.2588 19.4208 27.1907 21.0051C27.1226 22.4702 26.8842 23.2538 26.6799 23.799C26.4075 24.4974 26.084 24.9915 25.5562 25.5196C25.0284 26.0477 24.5346 26.3714 23.8365 26.644C23.3087 26.8484 22.5085 27.0869 21.0613 27.1721C19.4779 27.2402 19.0011 27.2572 15 27.2743C11.0159 27.2913 10.5392 27.2743 8.95573 27.2061ZM21.1805 6.98467C21.1805 7.97274 21.9977 8.77342 22.9852 8.77342C23.9728 8.77342 24.79 7.95571 24.773 6.96763C24.773 5.97956 23.9557 5.17888 22.9682 5.17888C21.9807 5.17888 21.1805 5.99659 21.1805 6.98467ZM7.3042 15.0085C7.3042 19.2675 10.7605 22.6917 15.017 22.6917C19.2565 22.6746 22.6958 19.2334 22.6958 14.9744C22.6788 10.7325 19.2395 7.27428 14.983 7.29131C10.7264 7.30835 7.28717 10.7666 7.3042 15.0085ZM9.99432 15.0085C9.99432 12.2487 12.2247 10.017 14.983 10C17.7412 10 19.9886 12.2317 19.9886 14.9915C19.9886 17.7513 17.7582 20 15 20C12.2418 20 10.0114 17.7683 9.99432 15.0085Z" fill="#3D3D3D"/>
</svg>
