<svg width="30" height="30" viewBox="0 0 30 30" fill="none" xmlns="http://www.w3.org/2000/svg">
<path d="M16.875 5H11.875V10H16.875V5Z" fill="#3D3D3D" fill-opacity="0.6"/>
<path d="M9.375 20H4.375V25H9.375V20Z" fill="#3D3D3D" fill-opacity="0.6"/>
<path d="M9.375 12.5H4.375V17.5H9.375V12.5Z" fill="#3D3D3D" fill-opacity="0.6"/>
<path d="M9.375 5H4.375V10H9.375V5Z" fill="#3D3D3D" fill-opacity="0.6"/>
<path d="M24.375 5H19.375V10H24.375V5Z" fill="#3D3D3D" fill-opacity="0.6"/>
<path d="M13.125 22.325V25H15.75L23.225 17.5375L20.575 14.8875L13.125 22.325Z" fill="#3D3D3D" fill-opacity="0.6"/>
<path d="M16.875 15.0375V12.5H11.875V17.5H14.4125L16.875 15.0375Z" fill="#3D3D3D" fill-opacity="0.6"/>
<path d="M25.4375 14.45L23.675 12.6875C23.425 12.4375 23.0375 12.4375 22.7875 12.6875L21.4625 14.0125L24.1125 16.6625L25.4375 15.3375C25.6875 15.0875 25.6875 14.7 25.4375 14.45Z" fill="#3D3D3D" fill-opacity="0.6"/>
</svg>
