<svg width="200" height="33" viewBox="0 0 200 33" fill="none" xmlns="http://www.w3.org/2000/svg">
<path d="M20.7438 8.99097C20.7906 8.29563 20.5767 7.66045 20.2691 7.05871C20.0485 6.61743 19.7342 6.23633 19.3531 5.92209C19.0857 5.70145 18.7781 5.52761 18.4639 5.37383C18.0293 5.16657 17.5679 5.09971 17.0932 5.05959C16.5851 5.01279 16.0836 5.07965 15.6089 5.24011C15.2345 5.36046 14.8801 5.5343 14.5659 5.78837C14.3854 5.93546 14.2048 6.08924 14.0377 6.2497C13.9441 6.34331 13.8505 6.4436 13.7702 6.55057C13.5496 6.85813 13.349 7.18575 13.1819 7.52673C12.9746 7.94795 12.8944 8.39592 12.7673 8.83719C12.7406 8.9308 12.7005 9.01772 12.6604 9.09795C12.5133 9.39214 12.2391 9.3119 12.072 9.15144C12.0319 9.11132 11.9917 9.06452 11.9583 9.0244C11.8179 8.8372 11.6307 8.82382 11.4234 8.884C11.263 8.9308 11.1092 8.98429 10.9554 9.04446C10.6278 9.17818 10.4673 9.07789 10.3002 8.84388C10.2333 8.74359 10.1664 8.6433 10.0862 8.5497C9.93911 8.38254 9.7051 8.29563 9.4644 8.42266C9.32399 8.49621 9.15015 8.52295 8.98969 8.5497C8.7423 8.58981 8.48154 8.60987 8.23416 8.64999C8.04695 8.67673 7.86642 8.64999 7.69927 8.56307C7.3984 8.40929 7.39171 8.04824 7.66584 7.85435C8.0202 7.60697 8.408 7.43313 8.78242 7.23255C9.21701 7.00522 9.62487 6.75115 9.91237 6.34331C9.99929 6.22296 10.0595 6.08924 10.1263 5.9622C10.2199 5.78837 10.3002 5.60784 10.4005 5.44069C10.5609 5.18662 10.7281 4.93924 10.9019 4.69854C11.1092 4.41105 11.3632 4.15698 11.6374 3.92297C11.9383 3.66221 12.2792 3.44157 12.6069 3.21425C13.0548 2.90669 13.5563 2.69942 14.0511 2.47878C14.3252 2.35844 14.606 2.25815 14.8868 2.15117C15.2144 2.02413 15.4351 1.79012 15.5822 1.47588C15.649 1.33547 15.7493 1.20175 15.8229 1.06803C15.9566 0.82065 16.1304 0.600011 16.2976 0.379372C16.4046 0.238966 16.5316 0.118618 16.6854 0.0517572C16.9261 -0.0485331 17.1066 -0.015103 17.1668 0.259024C17.2336 0.566581 17.3139 0.867452 17.3473 1.17501C17.3874 1.50262 17.5813 1.68983 17.8354 1.83693C17.929 1.89041 18.036 1.92384 18.1363 1.95059C18.4238 2.03082 18.7113 2.10437 18.9921 2.21803C19.3732 2.37849 19.7543 2.52559 20.122 2.72617C20.6302 3.00029 21.1049 3.31454 21.5595 3.6689C21.954 3.97645 22.3084 4.32413 22.636 4.69854C23.0639 5.19331 23.425 5.74157 23.6924 6.34999C23.9598 6.95174 24.1337 7.57354 24.2072 8.22208C24.2473 8.60987 24.2674 8.99766 24.2473 9.38545C24.2206 9.88021 24.1337 10.3683 24.0066 10.8497C23.8863 11.291 23.7058 11.7055 23.5186 12.1133C23.3581 12.4543 23.1375 12.7753 22.9235 13.0895C22.7029 13.4038 22.4688 13.7046 22.2215 13.9921C22.0276 14.2194 21.8069 14.42 21.593 14.6273C21.3857 14.8279 21.1784 15.0285 20.9578 15.2023C20.6569 15.443 20.3293 15.6569 20.0284 15.8976C19.8746 16.018 19.7275 16.1517 19.6005 16.3055C19.42 16.5194 19.42 16.7735 19.5337 17.0209C19.7275 17.4622 19.9682 17.8767 20.2424 18.2645C20.443 18.5453 20.677 18.8127 20.9244 19.0601C21.2386 19.3811 21.593 19.6485 21.9808 19.8758C22.4755 20.17 23.0104 20.3238 23.572 20.4375C24.1604 20.5511 24.7221 20.4642 25.2837 20.3104C25.7317 20.1901 26.1261 19.9694 26.4805 19.6886C26.9886 19.2941 27.4032 18.8127 27.6974 18.2377C27.8511 17.9369 27.9782 17.6293 28.0718 17.3017C28.1855 16.9072 28.2256 16.5061 28.2256 16.0915C28.2256 15.6904 28.1587 15.3093 28.0651 14.9215C27.9514 14.4668 27.7308 14.0657 27.47 13.6912C27.2828 13.4238 27.0488 13.1831 26.8014 12.9625C26.5741 12.7552 26.3067 12.6081 26.0459 12.4476C25.8854 12.3474 25.6982 12.2872 25.5177 12.227C25.3639 12.1735 25.2035 12.1267 25.0363 12.0933C24.8692 12.0599 24.7755 11.9596 24.7421 11.8058C24.7087 11.6587 24.7689 11.545 24.8825 11.4514C25.0764 11.3043 25.0831 11.1104 25.0162 10.9032C25.0029 10.8697 24.9828 10.8363 24.9761 10.7962C24.9494 10.7026 24.9226 10.609 24.9093 10.5154C24.8825 10.2947 24.9093 10.0942 25.0898 9.92033C25.1834 9.82673 25.2436 9.68632 25.3037 9.55929C25.3773 9.39882 25.3907 9.22498 25.3372 9.05783C25.3305 9.0244 25.3171 8.99766 25.3104 8.96423C25.2503 8.75028 25.17 8.5497 25.1299 8.32237C25.0831 8.0215 25.0096 7.72731 25.0229 7.41976C25.0229 7.36627 25.0029 7.30609 25.0029 7.25261C24.9962 7.16569 24.9962 7.08546 25.0831 7.03197C25.1633 6.98517 25.2569 6.99185 25.3439 7.07877C25.4642 7.19243 25.5912 7.3061 25.6849 7.43982C25.9122 7.75406 26.1194 8.08167 26.3401 8.40929C26.4003 8.49621 26.4738 8.58313 26.5407 8.66336C26.5607 8.6901 26.5875 8.70347 26.6075 8.73022C26.8349 9.09126 27.1959 9.28516 27.5302 9.51248C27.898 9.76655 28.259 10.0273 28.62 10.2881C29.0346 10.5889 29.4224 10.9299 29.7767 11.3043C30.2247 11.779 30.6125 12.2939 30.9067 12.8822C31.1407 13.3503 31.3547 13.825 31.5285 14.3197C31.582 14.4802 31.6622 14.634 31.7291 14.7944C31.8561 15.0819 32.0768 15.2558 32.3509 15.3895C32.5983 15.5032 32.839 15.6302 33.0864 15.7572C33.1532 15.7907 33.2134 15.8441 33.2669 15.8976C33.2869 15.9177 33.3137 15.9444 33.3204 15.9712C33.4073 16.2386 33.2869 16.4593 33.0195 16.5395C32.7788 16.6064 32.5448 16.6866 32.2974 16.7334C32.0366 16.7869 31.8762 16.954 31.7826 17.1747C31.6422 17.5157 31.5352 17.87 31.4148 18.2177C31.3346 18.445 31.2343 18.6657 31.1541 18.893C31.0204 19.2808 30.8131 19.6284 30.6125 19.9828C30.3919 20.3706 30.1244 20.7316 29.8369 21.0726C29.2017 21.8215 28.4395 22.4098 27.5703 22.8578C27.4165 22.938 27.2561 22.9982 27.0956 23.0584C26.8616 23.1453 26.6343 23.2389 26.3936 23.3058C25.9256 23.4328 25.4442 23.4996 24.9628 23.5398C24.7488 23.5531 24.5282 23.5665 24.3142 23.5665C23.8261 23.5665 23.3514 23.5063 22.87 23.4194C22.2415 23.3124 21.6531 23.0918 21.0848 22.811C20.7639 22.6505 20.4363 22.4767 20.1354 22.2828C19.8813 22.1156 19.654 21.9084 19.42 21.7145C19.1927 21.5206 18.9586 21.3334 18.7581 21.1194C18.4973 20.8453 18.2633 20.5511 18.0293 20.2569C17.8889 20.0831 17.7752 19.8892 17.6348 19.722C17.4543 19.5014 17.2604 19.3008 16.9662 19.2407C16.779 19.2072 16.6118 19.2407 16.458 19.3343C16.3578 19.3944 16.2642 19.4546 16.1705 19.5215C15.6825 19.8691 15.1944 20.2168 14.7665 20.638C14.3118 21.0793 13.924 21.5808 13.67 22.1691C13.4159 22.7575 13.2688 23.3726 13.2621 24.0212C13.2554 24.4089 13.2688 24.7834 13.3758 25.1578C13.4761 25.5055 13.6365 25.8331 13.8104 26.154C13.9575 26.4281 14.1647 26.6555 14.372 26.8761C14.7464 27.2773 15.2011 27.5781 15.7159 27.7653C16.4046 28.0194 17.1267 28.1197 17.8621 27.9726C18.2767 27.8924 18.6645 27.7386 19.0255 27.5113C19.4267 27.2572 19.7744 26.9496 20.0886 26.5953C20.3293 26.3212 20.5366 26.0203 20.7171 25.706C20.9444 25.3116 21.1383 24.8903 21.252 24.4424C21.2787 24.3287 21.3122 24.2217 21.3523 24.1148C21.4392 23.8674 21.7133 23.8139 21.8805 24.0145C21.9941 24.1482 22.1011 24.2953 22.2014 24.4424C22.3619 24.6697 22.5424 24.7232 22.7965 24.5895C22.9302 24.5226 23.0639 24.4557 23.2244 24.4557C23.3982 24.4491 23.5319 24.5092 23.6523 24.6229C23.7593 24.7232 23.8596 24.8302 23.9598 24.9371C24.0601 25.0508 24.1738 25.0842 24.3209 25.0642C24.6485 25.0241 24.936 24.8569 25.2436 24.7566C25.4508 24.6898 25.6514 24.6095 25.8787 24.6229C25.9122 24.6229 25.9456 24.6229 25.9724 24.6296C26.1529 24.6697 26.2064 24.8034 26.086 24.9371C25.959 25.0776 25.8119 25.1979 25.6648 25.3249C25.4308 25.5255 25.1901 25.7261 24.9561 25.9267C24.8892 25.9869 24.8157 26.0337 24.7555 26.1005C24.6552 26.2008 24.5549 26.3145 24.4546 26.4214C24.234 26.6555 24.0534 26.9229 23.8863 27.2104C23.7325 27.4711 23.5453 27.7185 23.3648 27.9659C23.1776 28.22 22.9904 28.4674 22.7965 28.7081C22.4488 29.1226 22.0409 29.4836 21.6063 29.8113C21.2386 30.0854 20.8308 30.2993 20.4296 30.5066C20.3494 30.5467 20.2624 30.5735 20.1822 30.6002C19.781 30.7339 19.3732 30.861 18.972 31.0081C18.6444 31.1284 18.377 31.3156 18.2499 31.6633C18.1229 32.0043 17.929 32.3118 17.7217 32.6127C17.6348 32.7464 17.4944 32.8534 17.354 32.947C17.2002 33.054 17.013 32.9938 16.9528 32.8133C16.8993 32.6595 16.8659 32.4924 16.8458 32.3319C16.8258 32.1046 16.7857 31.8906 16.6787 31.69C16.5784 31.4961 16.4179 31.3624 16.2441 31.2421C15.9967 31.0749 15.7092 31.0081 15.4217 30.9546C15.1476 30.9078 14.8801 30.8342 14.6194 30.7139C14.4054 30.6136 14.1781 30.54 13.9641 30.4397C13.7368 30.3261 13.5095 30.2057 13.2955 30.072C12.8074 29.7778 12.3795 29.4101 11.9583 29.0223C11.7845 28.8618 11.6374 28.6613 11.4836 28.4807C11.3365 28.3069 11.1894 28.1331 11.0624 27.9459C10.8417 27.6182 10.6478 27.2773 10.4673 26.9229C10.2868 26.5618 10.1598 26.1874 10.0461 25.7996C9.98591 25.579 9.90568 25.3584 9.86556 25.1377C9.81876 24.8903 9.79202 24.6363 9.77865 24.3822C9.75859 24.068 9.73853 23.7537 9.7519 23.4462C9.77865 22.9781 9.78533 22.5034 9.9458 22.0488C10.0728 21.6944 10.1531 21.3267 10.3403 20.9924C10.5409 20.618 10.7548 20.2502 11.0223 19.9093C11.4569 19.3476 11.965 18.8595 12.4999 18.3915C12.7072 18.211 12.9278 18.0439 13.1284 17.8633C13.4426 17.5825 13.7569 17.3017 14.0511 17.0075C14.1982 16.8604 14.2918 16.6799 14.2717 16.4593C14.265 16.3991 14.265 16.3456 14.2717 16.2854C14.3118 15.9846 14.1714 15.7505 13.9909 15.5366C13.7769 15.2758 13.5429 15.0285 13.3423 14.761C13.0214 14.3264 12.6336 13.9587 12.2324 13.6177C11.9449 13.377 11.6307 13.1764 11.2897 13.0026C10.6813 12.695 10.0327 12.6215 9.37079 12.6616C8.91614 12.6883 8.48154 12.7953 8.06701 12.9959C7.58561 13.2232 7.17107 13.5241 6.81671 13.9119C6.4824 14.2796 6.22165 14.7008 6.04112 15.1755C5.92077 15.5098 5.80042 15.8375 5.76699 16.1851C5.72688 16.5128 5.70682 16.8404 5.72687 17.1747C5.75362 17.5157 5.76699 17.8633 5.84722 18.1976C6.00769 18.8729 6.26845 19.488 6.78328 19.9828C6.95712 20.15 7.15101 20.277 7.35159 20.404C7.73939 20.6514 8.18067 20.7517 8.61527 20.872C8.6487 20.8787 8.67544 20.8854 8.70887 20.8988C9.00975 20.979 9.08329 21.2063 8.8894 21.447C8.66876 21.7212 8.66207 21.8415 8.82922 22.1558C8.98969 22.4499 9.01643 22.7441 8.84928 23.0517C8.7891 23.1587 8.73562 23.2656 8.68881 23.3793C8.57515 23.6467 8.62864 23.9008 8.72893 24.1549C8.78242 24.2886 8.80916 24.4357 8.84259 24.5761C8.86265 24.6496 8.86265 24.7299 8.89608 24.7967C9.03649 25.1177 9.03649 25.452 9.04318 25.793C9.04318 25.8464 9.01643 25.94 8.983 25.9534C8.91614 25.9735 8.82253 25.9735 8.76905 25.9334C8.65538 25.8464 8.54172 25.7395 8.46817 25.6191C8.2141 25.2113 7.9266 24.8302 7.59898 24.4892C7.37165 24.2485 7.1109 24.0412 6.85682 23.834C6.56932 23.5999 6.26845 23.386 5.98095 23.1587C5.6667 22.9113 5.35245 22.6572 5.05827 22.3898C4.79082 22.1491 4.54344 21.8816 4.29605 21.6142C3.8882 21.1796 3.56727 20.6848 3.29314 20.1566C3.19953 19.9828 3.11261 19.8023 3.0257 19.6284C2.93878 19.4546 2.87191 19.2674 2.77162 19.0936C2.63122 18.8395 2.5443 18.5654 2.44401 18.2979C2.37714 18.1174 2.29691 17.9436 2.19662 17.7764C2.1565 17.7029 2.07627 17.6427 1.99604 17.6093C1.66173 17.4421 1.30737 17.3017 0.979751 17.1279C0.658819 16.9607 0.337887 16.7869 0.137304 16.4593C0.050385 16.3122 -0.0164764 16.1651 0.00358183 15.9912C0.0102679 15.891 0.00358183 15.784 0.00358183 15.6837C0.0102679 15.5767 0.0503848 15.5299 0.157362 15.5299C0.237595 15.5299 0.331201 15.5232 0.404748 15.5567C0.852716 15.7505 1.32743 15.7439 1.79545 15.7305C1.97598 15.7238 2.12307 15.6302 2.24342 15.5032C2.40389 15.3293 2.49081 15.1221 2.55767 14.9014C2.62453 14.6741 2.69139 14.4468 2.79168 14.2328C2.97889 13.8116 3.18616 13.4038 3.46029 13.036C3.63413 12.802 3.7946 12.5546 3.98849 12.3407C4.18239 12.1133 4.4164 11.9261 4.61698 11.7055C4.80419 11.4982 5.01815 11.3378 5.24548 11.1773C5.45275 11.0302 5.66001 10.8831 5.87397 10.7427C6.24839 10.502 6.66293 10.3349 7.07747 10.161C7.43851 10.0139 7.81962 9.94039 8.20073 9.86684C8.46149 9.81335 8.72893 9.76655 8.98969 9.74649C9.50452 9.69969 10.0193 9.69301 10.5342 9.77992C11.0423 9.86684 11.5505 9.94039 12.0385 10.1209C12.5801 10.3215 13.1083 10.5421 13.583 10.8631C13.904 11.0837 14.2316 11.291 14.5325 11.5317C14.7865 11.7322 15.0139 11.9663 15.2412 12.1936C15.5554 12.5078 15.8429 12.8488 16.1037 13.2165C16.2307 13.3971 16.3644 13.5776 16.4982 13.7514C16.8057 14.1593 17.4142 14.1994 17.7685 13.8183C18.0159 13.5508 18.3034 13.3302 18.5642 13.0761C18.7514 12.8956 18.9319 12.7084 19.1057 12.5145C19.3063 12.3006 19.5002 12.0799 19.6807 11.8526C19.8412 11.652 19.9749 11.4381 20.1153 11.2308C20.1889 11.1171 20.2691 11.0102 20.3293 10.8898C20.5967 10.2747 20.7773 9.65289 20.7438 8.99097Z" fill="white"/>
<path d="M81.0724 9.36521C80.8852 9.29167 80.698 9.15795 80.5041 9.15126C79.2471 9.09777 77.9901 9.05766 76.7933 9.59254C75.9575 9.96696 75.0683 10.094 74.1657 10.0606C72.5476 10.0004 71.5247 8.16173 72.3337 6.75766C72.8753 5.81493 73.6976 5.32017 74.8009 5.3068C76.3119 5.29342 77.8297 5.38034 79.3273 5.21319C81.9483 4.91901 84.5625 5.17308 87.1768 5.08616C87.9992 5.05941 88.8216 4.90563 89.6373 4.91232C90.7071 4.91901 91.7835 4.98587 92.8533 5.09953C94.3109 5.25331 95.7417 5.54749 97.1257 6.10243C98.0083 6.45679 98.483 7.34603 97.5469 8.29545C96.6644 9.17801 95.628 9.55242 94.4178 9.38527C93.5018 9.25824 92.5925 9.01754 91.6765 8.86376C90.7271 8.70998 89.7643 8.59632 88.8082 8.48266C88.6344 8.4626 88.407 8.44923 88.2867 8.54283C88.1062 8.67655 87.919 8.89051 87.8855 9.09109C87.8655 9.21144 88.1195 9.45213 88.2934 9.49893C88.5608 9.57917 88.8617 9.53236 89.1492 9.55911C89.6841 9.6126 90.2257 9.62597 90.7405 9.753C91.7568 10.0004 92.1847 10.5353 92.285 11.5582C92.3251 11.9527 92.3451 12.3472 92.3585 12.7417C92.412 15.4696 92.4655 18.1975 92.5056 20.9254C92.5324 22.5033 91.9373 23.9541 91.4158 25.3916C90.9879 26.5684 89.5169 27.0698 88.5608 26.3544C87.2303 25.3515 85.7928 25.5721 84.3352 25.6791C83.9407 25.7059 83.5529 25.8329 83.1651 25.8195C82.3896 25.7928 81.6742 25.9666 80.9721 26.2675C80.5442 26.448 80.0962 26.5951 79.6483 26.7221C78.5317 27.0431 77.95 26.7957 77.4953 25.7259C76.9404 24.4221 76.7398 23.0315 76.7732 21.6207C76.8134 19.9358 76.9337 18.2576 76.9605 16.5727C76.9738 15.7169 76.8869 14.8544 76.8 14.0053C76.6529 12.521 77.6558 10.8963 79.0799 10.4015C79.4878 10.2611 79.9023 10.1609 80.3102 10.0204C80.591 9.92015 80.8585 9.77975 81.1326 9.6594C81.0992 9.55911 81.0858 9.45882 81.0724 9.36521ZM84.703 17.5556C85.3782 17.9367 86.1137 18.2376 86.6954 18.7123C87.6649 19.5079 87.3841 20.2434 86.5082 20.7983C85.0439 21.721 83.4326 21.5806 81.8279 21.1928C81.7945 21.1861 81.7611 21.166 81.7343 21.146C81.273 20.7582 80.6779 20.4172 80.6712 19.7486C80.6646 19.0733 81.1526 18.6655 81.7343 18.378C81.9282 18.2777 82.1087 18.144 82.296 18.0236C82.0352 17.9166 81.8279 17.9568 81.6273 17.9701C81.3733 17.9835 81.1259 17.9634 80.8718 17.9902C80.1898 18.0504 79.8154 18.4649 79.8756 19.1268C79.9425 19.8355 80.0427 20.5442 80.1765 21.2463C80.3637 22.2559 80.4239 22.3227 81.4401 22.2893C82.657 22.2559 83.8739 22.1355 85.0907 22.0887C85.6992 22.0687 86.3076 22.1422 86.9227 22.1489C87.7852 22.1556 88.0059 22.082 88.1663 21.2797C88.3536 20.3437 88.3536 19.3675 88.4204 18.4114C88.4605 17.8164 88.1129 17.5623 87.5579 17.5556C86.5817 17.5489 85.6256 17.5556 84.703 17.5556ZM88.4472 13.4504C88.2934 13.3367 88.046 13.0091 87.7852 13.0024C87.4108 12.989 87.1634 13.3167 87.1835 13.7379C87.2036 14.139 87.3908 14.4332 87.8053 14.4867C88.1262 14.5268 88.4739 14.0521 88.4472 13.4504ZM80.9922 13.798C80.5442 13.7245 80.123 13.6108 80.0762 14.1925C80.0628 14.3597 80.2701 14.6873 80.4105 14.7007C81.0189 14.7876 81.0925 14.3864 80.9922 13.798ZM84.4756 13.4504C84.4088 13.3835 84.255 13.0893 84.0611 13.0626C83.6666 13.0091 83.6064 13.3768 83.6599 13.6576C83.7067 13.8983 83.8538 14.2861 84.0076 14.3062C84.4422 14.3797 84.489 14.012 84.4756 13.4504ZM85.0038 9.0844C84.6561 8.85039 84.4021 8.58295 84.3085 8.62975C84.0678 8.75679 83.8939 9.02423 83.6934 9.23149C83.8739 9.35853 84.0745 9.59923 84.2349 9.57917C84.4556 9.55242 84.6495 9.3251 85.0038 9.0844Z" fill="white"/>
<path d="M180.14 19.9349C179.512 19.848 179.03 19.7811 178.415 19.6942C178.355 20.5968 178.281 21.4058 178.261 22.2149C178.248 23.0773 178.308 23.9398 178.301 24.8023C178.295 25.2302 178.261 25.6648 178.154 26.0794C177.947 26.855 177.579 27.1224 176.864 27.1224C176.282 27.1224 175.667 26.7012 175.5 26.1061C175.386 25.6983 175.346 25.257 175.313 24.8291C175.226 23.7593 175.166 22.6829 175.072 21.6131C175.052 21.4192 174.938 21.232 174.845 20.9779C174.096 21.4125 173.735 22.0744 173.381 22.7163C172.826 23.7259 172.01 24.4547 171.074 25.0765C170.927 25.1768 170.766 25.3038 170.599 25.3172C170.332 25.3439 169.957 25.384 169.803 25.2369C169.65 25.0898 169.589 24.6686 169.69 24.4614C170.058 23.6858 170.425 22.8901 170.947 22.2215C172.264 20.5433 173.334 18.7181 174.357 16.866C174.457 16.6788 174.544 16.4782 174.604 16.271C174.637 16.1439 174.611 15.9968 174.611 15.7628C174.062 15.7628 173.541 15.7628 173.026 15.7628C172.565 15.7628 172.09 15.803 171.642 15.7361C171.06 15.6425 170.479 15.4285 170.378 14.7466C170.265 13.9777 170.338 13.2155 171.047 12.7073C171.89 12.1056 172.839 11.8114 173.869 11.798C174.444 11.7913 175.025 11.8248 175.594 11.7913C176.376 11.7445 177.158 11.6576 177.94 11.5841C178.836 11.4972 179.726 11.3969 180.595 11.7713C181.35 12.0989 181.598 12.5803 181.197 13.2957C180.882 13.8506 180.448 14.3454 180.02 14.8268C179.405 15.5155 179.425 15.8431 180.174 16.3646C180.468 16.5718 180.729 16.8192 181.029 17.0131C181.671 17.4343 182.046 18.0093 182.052 18.8117C183.202 19.1058 184.225 18.7849 185.242 18.4372C185.643 18.2968 185.89 17.4745 185.75 17.0332C185.603 16.5652 185.255 16.378 184.647 16.4448C184.326 16.4782 184.005 16.5384 183.684 16.5451C182.828 16.5585 182.407 16.2375 182.193 15.4486C181.965 14.5995 182.139 13.9643 182.841 13.63C183.577 13.2823 184.366 13.0082 185.148 12.8009C185.884 12.607 186.057 12.5201 186.091 11.7579C186.118 11.1495 186.138 10.521 186.011 9.93262C185.817 9.00326 186.305 8.43495 186.9 7.89338C187.08 7.72623 187.314 7.60588 187.535 7.49222C188.565 6.95734 189.16 7.17129 189.541 8.25443C189.808 9.03001 189.982 9.83902 189.735 10.6681C189.654 10.9422 189.581 11.2297 189.568 11.5105C189.521 12.3329 189.828 12.6338 190.644 12.587C190.965 12.5669 191.286 12.5067 191.6 12.4466C192.77 12.2192 194.154 13.5297 193.86 15.0474C193.74 15.6692 193.292 15.9835 192.763 16.1105C191.968 16.2977 191.145 16.3713 190.33 16.4782C190.049 16.5184 189.761 16.5317 189.42 16.5585C189.32 16.8727 189.186 17.1669 189.146 17.4745C189.073 18.1497 189.36 18.464 190.056 18.4907C192.028 18.571 194 18.6245 195.973 18.7181C197.223 18.7715 198.126 19.4535 198.781 20.4564C199.189 21.0782 199.082 21.5864 198.56 22.1012C197.584 23.0707 196.387 23.1442 195.15 22.8367C193.365 22.3887 191.567 22.0678 189.721 22.1881C188.618 22.2617 187.528 22.5425 186.432 22.5826C184.914 22.6361 183.436 22.8835 181.986 23.3047C181.39 23.4785 180.795 23.6791 180.287 23.1108C179.699 22.4489 179.425 21.7067 179.739 20.8308C179.826 20.5835 179.946 20.3628 180.14 19.9349Z" fill="white"/>
<path d="M109.408 12.4534C108.96 12.5871 108.666 12.6807 108.358 12.761C107.469 13.0084 106.54 12.5604 106.239 11.7447C105.884 10.7619 106.266 9.79239 107.202 9.43134C108.378 8.98338 109.609 8.72931 110.872 8.73599C111.16 8.73599 111.447 8.75605 111.735 8.71594C112.925 8.56216 112.965 8.46855 113.032 7.27175C113.085 6.31565 113.573 5.48659 114.175 4.78455C114.737 4.13601 115.853 4.30985 116.301 5.09211C116.616 5.64036 116.83 6.26885 116.97 6.88396C117.304 8.32815 117.498 8.51536 119.009 8.42844C119.544 8.39501 120.079 8.33483 120.607 8.26797C121.517 8.14762 122.326 8.44849 123.068 8.89646C124.198 9.57843 124.158 10.8822 123.034 11.5642C122.319 11.9988 121.537 12.0255 120.741 11.9787C119.303 11.8918 119.19 11.9319 118.601 13.2357C117.625 15.3886 117.732 15.4822 119.297 16.9598C121.51 19.0325 123.997 20.7307 126.712 22.0813C127.42 22.4357 128.129 22.79 128.778 23.238C129.854 23.9801 129.687 25.324 128.49 25.8857C128.39 25.9325 128.296 25.9926 128.196 26.0127C126.484 26.3136 124.773 26.3336 123.068 25.9726C122.787 25.9124 122.466 25.6717 122.305 25.4243C120.988 23.3918 119.103 21.8473 117.645 19.9418C117.411 19.6342 117.097 19.3735 116.796 19.1261C116.034 18.5043 115.639 18.5377 114.998 19.3333C113.774 20.8511 112.397 22.2083 110.799 23.3249C109.281 24.388 107.623 25.1368 105.717 25.1836C105.47 25.1903 105.202 25.1836 104.975 25.1034C104.4 24.9028 103.778 24.7223 103.732 23.9467C103.685 23.1644 103.758 22.4223 104.547 21.9877C105.309 21.5732 106.092 21.2255 107.001 21.299C107.904 21.3726 108.699 21.0851 109.408 20.5301C110.404 19.7613 111.421 19.0258 112.397 18.2368C112.845 17.8758 113.232 17.3877 113.112 16.7592C112.992 16.1374 112.524 15.8031 111.902 15.6761C111.514 15.5959 111.14 15.4889 110.752 15.3953C109.542 15.1211 108.793 14.3991 109.314 13.1822C109.388 13.0217 109.368 12.8278 109.408 12.4534ZM113.313 12.2462C113.7 13.1153 114.289 13.3025 114.877 13.4095C115.258 13.4831 115.639 13.0886 115.673 12.6874C115.72 12.206 115.379 12.0188 115.011 12.0255C114.496 12.0322 113.981 12.1592 113.313 12.2462Z" fill="white"/>
<path d="M58.3597 20.6973C60.3455 20.5368 62.0237 20.3696 63.7019 20.2827C64.404 20.2426 65.1394 20.2693 65.8281 20.4231C66.9112 20.6705 67.3458 21.5865 66.831 22.576C66.0688 24.047 64.9455 25.1769 63.381 25.8121C63.2807 25.8522 63.1603 25.8388 63.0734 25.8923C61.8031 26.7013 60.4792 26.5208 59.1353 26.1129C57.8717 25.7318 56.5879 25.3975 55.3242 25.0164C54.0271 24.622 52.7367 24.194 51.4463 23.7929C50.7978 23.5923 50.1492 23.3784 49.4873 23.2112C46.8931 22.556 45.3352 20.2025 45.8701 17.6016C46.1376 16.3112 46.5454 15.0409 46.8931 13.7638C46.9466 13.5566 47.0134 13.3493 47.0536 13.1354C47.1873 12.4868 46.9265 12.1793 46.278 12.2194C46.064 12.2327 45.8634 12.3197 45.6495 12.3598C44.6064 12.5336 43.7373 12.1659 43.2291 11.3368C42.8614 10.7284 42.9617 9.61182 43.5166 8.92316C44.339 7.90689 45.3553 7.23828 46.7259 7.19817C48.3239 7.15137 49.8684 7.45224 51.3928 7.84003C52.8705 8.22113 53.3184 9.78566 52.3222 10.9691C51.4597 11.992 50.664 13.0484 50.2228 14.3255C49.9754 15.0342 49.7681 15.7563 49.6076 16.4917C49.3736 17.5615 50.4568 18.7449 51.4463 19.1194C52.3824 19.4737 53.3519 19.7679 54.328 19.9752C55.7522 20.2961 57.203 20.4967 58.3597 20.6973Z" fill="white"/>
<path d="M157.682 23.7194C156.866 23.4654 156.037 23.2514 155.241 22.9439C154.071 22.4959 152.921 22.0011 151.778 21.493C150.14 20.7709 148.689 19.8014 147.92 18.1032C147.759 17.7555 147.693 17.3477 147.666 16.9599C147.552 15.1346 147.559 13.2959 147.325 11.484C147.191 10.441 147.552 9.66541 148.047 8.88315C148.796 7.69972 149.652 7.63286 150.628 8.66919C150.875 8.92995 151.076 9.23082 151.263 9.53838C151.557 10.0131 151.958 10.2204 152.52 10.2137C153.456 10.2003 154.385 10.2404 155.321 10.2471C156.471 10.2538 157.381 10.9157 157.548 11.8785C157.695 12.7076 157.401 13.2959 156.578 13.5433C155.763 13.7907 154.907 13.911 154.064 14.0916C153.262 14.2587 152.42 14.3256 151.671 14.6198C150.735 14.9875 150.641 15.6628 151.357 16.3849C151.811 16.8395 152.319 17.2607 152.868 17.5884C154.064 18.3038 155.248 18.9523 156.772 18.8854C158.15 18.8253 159.547 19.1395 160.938 19.3133C161.252 19.3535 161.566 19.4805 161.84 19.641C162.703 20.1224 162.816 20.9782 162.121 21.7003C160.924 22.9505 159.487 23.6593 157.682 23.7194Z" fill="white"/>
<path d="M142.986 7.28516C143.895 7.39213 144.671 7.73312 145.119 8.56219C145.566 9.39794 145.239 10.1535 144.757 10.8689C144.717 10.929 144.671 10.9959 144.61 11.0226C142.765 11.952 142.999 13.7572 142.932 15.3351C142.825 17.9427 142.905 20.5502 143.233 23.1511C143.327 23.8799 143.173 24.6555 143.019 25.3842C142.946 25.7386 142.645 26.0796 142.371 26.3403C141.916 26.7749 141.434 26.7214 140.94 26.3002C140.458 25.8991 140.284 25.3709 140.251 24.7825C140.124 22.3488 140.024 19.9151 139.87 17.488C139.796 16.3848 139.656 15.2816 139.469 14.1985C139.315 13.3026 139.241 13.3226 138.345 13.2223C137.891 13.1689 137.423 13.0753 137.002 12.8947C136.159 12.5337 135.624 11.6645 135.718 10.8421C135.825 9.90608 136.139 9.13719 137.209 8.84969C138.519 8.50201 139.796 8.00725 141.1 7.62614C141.715 7.44562 142.364 7.39213 142.986 7.28516Z" fill="white"/>
<path d="M177.098 7.04512C178.081 6.97157 178.917 7.23232 179.685 8.00122C180.347 8.66313 180.2 9.85325 179.411 10.1742C177.86 10.796 176.242 11.1169 174.584 10.6489C173.822 10.4349 173.461 9.7797 173.514 8.97069C173.568 8.18174 174.25 7.3861 175.039 7.21895C175.42 7.13872 175.814 7.08523 176.209 7.04512C176.496 7.02506 176.784 7.04512 177.098 7.04512Z" fill="white"/>
</svg>
