<svg width="133" height="34" viewBox="0 0 133 34" fill="none" xmlns="http://www.w3.org/2000/svg">
<path d="M114.723 32.8103C114.386 32.8777 114.049 33.0012 113.712 33.0012C112.915 32.99 112.129 32.9001 111.332 32.8777C110.254 32.844 109.164 31.811 109.187 30.7555C109.209 29.9358 109.299 29.1274 109.322 28.3077C109.344 27.3982 109.097 27.0277 108.199 26.9603C107.525 26.9154 106.806 27.0389 106.144 27.1961C105.066 27.4656 105.279 28.4424 105.616 29.3969C106.043 30.6095 107.155 31.1597 108.03 31.9457C108.21 32.1141 108.322 32.3499 108.468 32.5633C108.232 32.7205 107.997 33.0012 107.761 33.0012C106.638 33.0012 105.504 33.0124 104.404 32.8328C103.932 32.7542 103.528 32.2264 103.101 31.8896C102.214 31.1485 101.394 30.2951 100.417 29.7C99.9796 29.4305 99.2048 29.5765 98.6209 29.6888C98.1044 29.7899 97.8125 30.2278 97.8574 30.7892C97.9023 31.3169 97.936 31.8447 98.6546 31.9569C98.8343 31.9906 98.9578 32.305 99.115 32.4847C98.9017 32.5745 98.6995 32.698 98.4862 32.7429C98.1943 32.8103 97.8911 32.8552 97.5992 32.8552C96.8918 32.8552 96.1844 32.8328 95.477 32.8215C95.3198 32.8215 95.1738 32.7878 95.0166 32.8103C94.2082 32.8777 93.8264 32.5184 93.905 31.8896C94.0173 31.0025 94.1633 30.1155 94.3766 29.2397C94.5899 28.3751 95.0615 27.5329 95.1064 26.6683C95.1626 25.8262 94.8819 24.9392 94.6573 24.097C94.399 23.1426 93.9275 22.2443 93.7253 21.2899C93.4222 19.9088 93.3548 18.5165 94.3204 17.2814C94.7584 16.72 95.0054 16.0126 95.477 15.4961C96.4314 14.463 97.2286 13.3514 98.7332 12.8125C99.8785 12.4082 101.013 12.3072 102.147 12.0714C102.214 12.0601 102.293 12.0489 102.36 12.0714C103.55 12.5317 104.797 12.5879 106.054 12.6889C106.649 12.7339 107.244 12.8686 107.851 12.9023C108.929 12.9697 110.007 13.0819 111.073 13.037C112.6 12.9697 114.139 12.8349 115.654 12.6216C117.114 12.4082 118.518 12.5093 119.944 12.8237C121.022 13.0595 122.145 13.3626 123.222 13.2953C124.458 13.2167 125.592 13.3514 126.625 13.9353C128.702 15.1143 130.79 16.2596 132.654 17.7754C133.137 18.1684 133.137 18.8084 132.508 19.1341C131.621 19.6057 130.667 19.9425 129.712 20.2681C128.32 20.751 126.849 21.0317 125.524 21.6492C124.098 22.3117 122.818 23.311 121.437 24.0858C120.707 24.5013 120.034 24.9167 119.584 25.6578C119.236 26.2304 119.147 26.7133 119.495 27.3308C119.843 27.9484 120.157 28.6221 120.326 29.307C120.573 30.2951 121.269 30.8004 122.066 31.272C122.448 31.4966 122.841 31.6762 123.211 31.9233C123.391 32.0468 123.604 32.2713 123.593 32.4285C123.582 32.597 123.335 32.8664 123.155 32.8889C122.582 32.9787 122.01 32.9787 121.426 32.99C121.145 32.99 120.864 32.8777 120.595 32.9001C119.259 33.0461 118.349 32.4061 117.44 31.5078C116.643 30.7106 115.654 30.1155 114.723 29.4755C114.498 29.3183 114.139 29.2284 113.892 29.2846C113.409 29.3969 112.769 29.3856 112.713 30.1267C112.656 30.8566 113.094 31.4629 113.802 31.7885C114.161 31.9569 114.453 32.2826 114.779 32.5296C114.767 32.6082 114.745 32.7092 114.723 32.8103Z" fill="white"/>
<path d="M6.68242 4.15526C7.60315 3.64998 8.40037 3.39172 8.74845 2.58327C9.29865 1.292 10.4103 0.786724 11.6454 0.472328C12.0047 0.3825 12.4201 0.573383 12.8131 0.584612C14.6209 0.640754 16.4399 0.88778 17.8323 2.05554C19.1123 3.13347 20.3923 4.24508 21.0997 5.90689C21.7847 7.50133 22.0991 9.06209 21.9643 10.8025C21.8408 12.3632 21.4927 13.778 20.7741 15.1704C20.2239 16.2371 20.179 17.3374 20.965 18.494C21.5264 19.3249 21.6387 20.4814 21.9194 21.492C22.3685 23.1762 21.9306 24.8268 21.6275 26.4774C21.605 26.5897 21.5489 26.702 21.4927 26.7918C20.8752 27.8136 20.3811 28.9589 19.5839 29.8235C18.6968 30.7891 17.5965 31.5863 16.2827 32.0355C14.6771 32.5857 13.0377 32.8327 11.3759 32.8664C8.18703 32.9225 5.00938 32.8888 1.8205 32.8776C1.57348 32.8776 1.31522 32.8215 1.0682 32.7878C0.349579 32.6755 0.0913243 32.2937 0.0913243 31.5302C0.113781 21.8288 0.113781 12.1274 0.102553 2.4373C0.102553 2.04431 0.0464106 1.65131 0.00149686 1.25832C-0.0321885 0.753039 0.506777 0.191617 1.20294 0.16916C2.06753 0.146703 2.93212 0.270215 3.79671 0.270215C4.27953 0.270215 4.77358 0.214073 5.24518 0.124246C6.24451 -0.0666376 6.7947 0.528469 6.67119 1.55026C6.57013 2.34748 6.67119 3.15593 6.68242 4.15526ZM10.3878 19.3473C10.3878 19.3698 10.3878 19.3923 10.3878 19.4147C9.72532 19.4147 9.06285 19.4147 8.40037 19.4147C7.2663 19.4147 6.81716 19.7516 6.65996 20.8407C6.59259 21.346 6.68242 21.8737 6.70487 22.379C6.72733 22.7496 6.77225 23.1201 6.76102 23.4906C6.74979 23.9285 6.62628 24.3665 6.64873 24.8044C6.69365 26.0732 7.24384 26.7918 8.29931 26.7918C10.0285 26.7918 11.7801 26.8367 13.4644 26.556C14.2279 26.4213 15.1037 25.669 15.4967 24.9616C15.8897 24.2542 15.8336 23.2436 15.8336 22.3678C15.8336 20.9755 14.6883 19.7179 13.3297 19.5494C12.3528 19.4484 11.3647 19.4147 10.3878 19.3473ZM10.1071 6.69288C10.1071 6.72657 10.0959 6.77148 10.0959 6.80517C9.45584 6.80517 8.82705 6.80517 8.18703 6.80517C7.31121 6.8164 6.78347 7.32168 6.78347 8.18627C6.77225 9.36525 6.78347 10.5555 6.78347 11.7345C6.78347 12.8348 7.1877 13.2166 8.32177 13.1829C9.70287 13.138 11.0952 13.0706 12.4763 13.0482C14.1156 13.0257 15.2722 12.1611 15.6652 10.6004C16.0919 8.93857 15.2385 7.42273 13.5767 7.09711C12.4314 6.87254 11.2636 6.8164 10.1071 6.69288Z" fill="white"/>
<path d="M68.6747 17.214C68.6747 12.6552 68.6747 8.09648 68.6747 3.54896C68.6747 2.71805 68.6747 1.88715 68.6747 1.05624C68.6747 0.449907 69.2361 -0.021687 69.8312 0.000769847C71.1674 0.056912 72.5036 0.113054 73.8398 0.135511C74.9289 0.157968 75.3444 0.708162 75.0974 1.76364C74.9963 2.21277 74.9177 2.68437 74.9289 3.14473C74.9402 3.41422 75.0973 3.85212 75.277 3.89704C75.524 3.96441 75.9283 3.82967 76.1416 3.63878C76.7816 3.06613 77.3767 2.44857 77.9718 1.83101C79.1171 0.640791 80.5544 0.483593 82.0814 0.618334C82.6092 0.663248 83.1931 0.607106 83.6759 0.797989C85.4837 1.48292 87.2802 2.34751 88.4367 3.90827C89.3687 5.15462 90.1322 6.54695 90.3793 8.19753C90.7498 10.6229 90.4129 12.8573 89.234 15.002C88.6501 16.0574 87.9539 16.9782 87.0107 17.7305C86.4268 18.1908 86.4268 18.7074 86.8984 19.4372C88.0437 21.1888 88.796 23.0864 88.9083 25.1862C89.0318 27.5778 89.7729 29.6888 91.3112 31.5415C91.5133 31.7885 91.6593 32.3948 91.5246 32.5296C91.2438 32.799 90.761 32.9787 90.368 32.9899C89.1666 33.0124 87.9764 32.9001 86.7749 32.8889C85.8542 32.8776 85.0794 32.6868 84.664 31.7436C84.1924 30.6993 83.5187 29.7112 83.2267 28.6221C82.946 27.5778 83.0808 26.4437 82.9573 25.3546C82.7551 23.5693 82.0253 22.0534 80.8014 20.6948C79.454 19.1902 77.7585 19.2688 76.0405 19.3249C75.7374 19.3361 75.2545 19.7516 75.1984 20.0435C75.0075 20.998 74.9289 21.9748 74.9065 22.9405C74.884 23.8275 75.0187 24.7146 75.03 25.6016C75.0524 27.4206 75.0412 29.2396 75.03 31.0586C75.03 31.4067 74.9289 31.7436 74.8952 32.0917C74.8503 32.6643 74.4573 32.8552 73.9857 32.8664C72.5709 32.9001 71.1562 32.8889 69.7414 32.8664C69.0115 32.8552 68.6635 32.3836 68.6635 31.4629C68.6635 29.0263 68.6635 26.6009 68.6635 24.1644C68.6747 21.8401 68.6747 19.527 68.6747 17.214ZM77.882 7.23189C77.3206 7.23189 76.7367 7.16451 76.1865 7.25434C75.8272 7.32171 75.3331 7.55751 75.2096 7.84945C74.9851 8.35473 74.9514 8.96106 74.9177 9.53372C74.8728 10.3085 74.9514 11.0945 74.8952 11.8692C74.8503 12.4868 75.2545 13.1717 75.8384 13.1717C77.7697 13.183 79.7122 13.2166 81.6435 13.1605C83.1369 13.1156 83.6759 12.6777 84.0913 11.2404C84.2148 10.8025 84.2373 10.3309 84.2373 9.87057C84.2598 8.47824 82.9797 7.22066 81.5762 7.22066C80.3523 7.23188 79.1171 7.23189 77.882 7.23189Z" fill="white"/>
<path d="M44.4549 26.1406C44.4549 24.2542 44.4549 22.3678 44.4549 20.4814C44.4549 14.0588 44.4549 7.63611 44.4549 1.21344C44.4549 0.449905 44.7356 0.157965 45.4992 0.157965C46.7231 0.146736 47.9582 0.157965 49.1821 0.157965C49.4403 0.157965 49.7211 0.180422 49.9456 0.101823C50.5407 -0.122746 51.2481 0.55096 51.2481 1.2359C51.2481 4.58197 51.2481 7.93927 51.2481 11.2853C51.2481 11.5324 51.1246 11.7906 51.1695 12.0152C51.3829 13.138 52.0004 13.4188 53.3928 13.1942C53.9766 13.0931 54.583 13.183 55.1781 13.1717C56.5592 13.138 57.9403 13.1493 59.3101 13.0145C59.9502 12.9472 60.2084 12.4082 60.0849 11.712C60.0175 11.3639 60.1635 10.9822 60.1635 10.6229C60.1747 7.60242 60.1635 4.58197 60.1635 1.56152C60.1635 0.438676 60.7698 0.0232237 61.9039 0.135508C63.038 0.236564 64.1833 0.157965 65.3286 0.169194C66.5525 0.169194 66.822 0.494818 66.6985 1.68503C66.6535 2.1454 66.7883 2.61699 66.7883 3.07736C66.7883 3.6051 66.6872 4.14406 66.6872 4.6718C66.676 12.4306 66.6872 20.2007 66.6872 27.9596C66.6872 29.2396 66.6985 30.5197 66.6872 31.7997C66.676 32.698 66.1033 33.0461 65.2163 32.945C64.1384 32.8327 63.0492 32.8889 61.9713 32.8889C60.3656 32.8776 60.0624 32.6194 60.04 31.0025C60.0288 30.3063 60.141 29.6102 60.1635 28.914C60.186 28.1617 60.1747 27.3982 60.1747 26.6346C60.1747 24.8605 60.1747 23.0977 60.1747 21.3236C60.1747 19.4597 59.6694 19.4933 58.1985 19.3361C56.9297 19.1902 55.616 19.4147 54.3247 19.426C53.6735 19.4372 53.0222 19.3586 52.371 19.2912C51.7871 19.2239 51.4727 19.5719 51.3267 20.0323C51.1808 20.4927 51.1134 20.9867 51.1246 21.4695C51.1471 22.9966 51.2369 24.5237 51.2481 26.0395C51.2481 27.4206 51.1583 28.8017 51.1246 30.1828C51.1134 30.7779 51.192 31.3843 51.1021 31.9569C50.9562 32.8889 50.6979 32.9562 49.7435 32.9113C48.4635 32.844 47.1834 32.8552 45.9034 32.9001C44.6683 32.945 44.3988 32.7092 44.4437 31.4067C44.4886 29.6326 44.4549 27.8922 44.4549 26.1406Z" fill="white"/>
<path d="M23.9181 16.2932C23.9181 11.2405 23.9181 6.18765 23.9181 1.14608C23.9181 0.247807 24.4234 0.000781432 25.3104 0.113066C26.3996 0.247807 27.5336 0.214122 28.634 0.113066C29.7681 0.0120099 30.3071 0.562204 30.1274 1.67382C30.0263 2.31384 30.1386 2.99878 30.2172 3.66125C30.2397 3.82968 30.5316 4.09916 30.6664 4.08793C30.9358 4.05425 31.239 3.89705 31.4187 3.69494C32.2833 2.70684 33.0693 1.65136 33.9788 0.696945C34.2707 0.382548 34.8321 0.180437 35.2813 0.169208C37.381 0.113066 39.4807 0.135523 41.5804 0.146751C42.4338 0.146751 42.7145 0.618346 42.6696 1.49416C42.6247 2.58332 42.7369 3.68371 42.7482 4.7841C42.7482 5.24446 42.7145 5.71606 42.6022 6.1652C42.4675 6.71539 41.9959 6.80522 41.4906 6.79399C38.2568 6.79399 35.023 6.80522 31.7892 6.78276C30.5541 6.78276 30.3071 7.04101 30.206 8.04035C30.0713 9.33162 30.0937 10.6453 30.206 11.9366C30.2846 12.8798 30.745 13.1605 31.7331 13.1605C34.2819 13.1605 36.8308 13.1605 39.3796 13.1605C40.3565 13.1605 40.6148 13.4412 40.6372 14.3956C40.6709 15.6083 40.727 16.8322 40.772 18.0449C40.8056 18.9095 40.0533 19.5158 39.2112 19.3137C39.0091 19.2688 38.7958 19.2463 38.5824 19.2463C37.1452 19.2912 35.7192 19.3474 34.2819 19.3811C33.4286 19.4035 32.5752 19.3474 31.7218 19.3923C30.5878 19.4597 30.1499 19.9537 30.1499 21.0653C30.1499 22.3117 30.1386 23.5693 30.1611 24.8156C30.1723 25.276 30.2172 25.7476 30.3183 26.1967C30.453 26.7694 30.9022 26.8929 31.4524 26.8929C34.6412 26.8817 37.8189 26.8929 41.0078 26.8817C42.4225 26.8817 42.7931 27.2971 42.7594 28.6558C42.7369 29.599 42.7594 30.5421 42.7482 31.4853C42.7369 32.4734 42.3664 32.8327 41.3895 32.8327C35.9325 32.8327 30.4755 32.8327 25.0297 32.8327C24.1876 32.8327 23.9181 32.5633 23.9181 31.6987C23.9068 26.5897 23.9181 21.4359 23.9181 16.2932Z" fill="white"/>
</svg>
