<svg width="193" height="44" viewBox="0 0 193 44" fill="none" xmlns="http://www.w3.org/2000/svg">
<path d="M19.0006 19.9852L17.2857 0.206299C14.1732 1.33499 11.9353 4.42545 11.9353 8.06233C11.9353 8.9402 12.0725 9.78224 12.3126 10.5795C11.0093 9.60308 9.41447 9.02978 7.69102 9.02978C4.99868 9.02978 2.62359 10.4272 1.18311 12.5592L19.0006 19.9852Z" fill="#00AE4D"/>
<path d="M18.5034 21.8215L0 17.2888C0.0428717 20.7286 2.14358 23.9176 5.45328 25.0642C6.25069 25.3419 7.06525 25.4673 7.86266 25.4852C6.56794 26.4706 5.54759 27.868 4.99884 29.579C4.14998 32.2484 4.67301 35.0433 6.15637 37.1394L18.5034 21.8215Z" fill="#00AE4D"/>
<path d="M20.0381 22.7441L10.272 39.782C13.4273 40.7852 16.9685 39.6655 19.0264 36.7273C19.5237 36.0197 19.8838 35.2493 20.141 34.461C20.6469 36.0465 21.6072 37.4977 23.0049 38.5547C25.1742 40.2119 27.8837 40.5434 30.2502 39.7103L20.0381 22.7441Z" fill="#00AE4D"/>
<path d="M20.8867 19.985L38.3784 12.2006C36.3891 9.45053 32.8908 8.17851 29.5811 9.29825C28.7837 9.56698 28.0549 9.96113 27.4032 10.4538C27.892 8.85931 27.9262 7.09462 27.3946 5.38367C26.5715 2.71423 24.5651 0.779333 22.1814 0L20.8867 19.985Z" fill="#00AE4D"/>
<path d="M21.4097 21.6781L33.911 36.6377C35.7974 33.816 35.866 29.9372 33.8253 26.9991C33.328 26.2914 32.7449 25.6912 32.1019 25.1896C33.7053 25.1806 35.3172 24.6611 36.7149 23.604C38.8927 21.9558 40.0331 19.367 39.9988 16.7603L21.4097 21.6781Z" fill="#00AE4D"/>
<path d="M59.18 7.26V25.78H61.7V7.26H59.18ZM56.7 14.38V16.52H59.78V14.38H56.7ZM55.04 7.58V24.9H57.5V7.58H55.04ZM46.32 19.42V21.6H47.62C50 21.6 51.96 21.54 54.2 21.1L54 18.94C51.8 19.34 49.9 19.42 47.62 19.42H46.32ZM46.32 9.4V20.46H48.96V11.54H53.16V9.4H46.32ZM74.1184 12.04V14.18H78.4384V12.04H74.1184ZM77.0384 7.28V20.78H79.6984V7.28H77.0384ZM67.4784 23.34V25.46H80.1184V23.34H67.4784ZM67.4784 19.64V24.6H70.1384V19.64H67.4784ZM68.4784 9.7V10.86C68.4784 13.2 67.1584 15.62 64.0984 16.62L65.4384 18.74C68.9984 17.56 70.6384 14.34 70.6384 10.86V9.7H68.4784ZM69.0384 9.7V10.86C69.0384 14.16 70.6184 17.24 74.0584 18.38L75.3584 16.3C72.4384 15.32 71.1784 13.02 71.1784 10.86V9.7H69.0384ZM64.8184 8.52V10.62H74.7784V8.52H64.8184ZM82.6169 15.96V18.08H99.3769V15.96H82.6169ZM89.6769 13.18V16.78H92.3169V13.18H89.6769ZM84.6369 12.34V14.44H97.4769V12.34H84.6369ZM84.6369 8.06V13.68H87.2769V10.14H97.3769V8.06H84.6369ZM90.9369 19C86.9369 19 84.4969 20.22 84.4969 22.4C84.4969 24.58 86.9369 25.8 90.9369 25.8C94.9369 25.8 97.3569 24.58 97.3569 22.4C97.3569 20.22 94.9369 19 90.9369 19ZM90.9369 21C93.4169 21 94.6769 21.46 94.6769 22.4C94.6769 23.36 93.4169 23.78 90.9369 23.78C88.4569 23.78 87.1969 23.36 87.1969 22.4C87.1969 21.46 88.4569 21 90.9369 21ZM108.015 16.16V18.74H110.675V16.16H108.015ZM100.995 14.6V16.68H117.735V14.6H100.995ZM103.055 7.8V13.62H115.615V7.8H103.055ZM112.995 9.86V11.58H105.675V9.86H112.995ZM102.915 17.84V19.82H113.095V20.76H102.935V24.24H105.555V22.6H115.715V17.84H102.915ZM102.935 23.66V25.66H116.195V23.66H102.935ZM119.414 21.48V23.64H136.174V21.48H119.414ZM126.434 17.52V22H129.094V17.52H126.434ZM121.174 8.44V18.08H134.354V8.44H131.714V11.28H123.814V8.44H121.174ZM123.814 13.36H131.714V15.96H123.814V13.36ZM138.512 9.56V11.68H153.792V9.56H138.512ZM137.812 21.78V23.92H154.572V21.78H137.812ZM144.832 19.34V22.62H147.472V19.34H144.832ZM146.132 12.48C142.272 12.48 139.852 13.82 139.852 16.1C139.852 18.38 142.272 19.72 146.132 19.72C149.992 19.72 152.412 18.38 152.412 16.1C152.412 13.82 149.992 12.48 146.132 12.48ZM146.132 14.54C148.452 14.54 149.692 15.04 149.692 16.1C149.692 17.16 148.452 17.64 146.132 17.64C143.812 17.64 142.572 17.16 142.572 16.1C142.572 15.04 143.812 14.54 146.132 14.54ZM144.832 7.46V10.88H147.472V7.46H144.832ZM163.551 11.48V13.62H166.491V11.48H163.551ZM169.451 7.26V21.12H171.971V7.26H169.451ZM165.751 7.56V20.56H168.251V7.56H165.751ZM159.511 23.34V25.46H172.451V23.34H159.511ZM159.511 19.5V24.68H162.171V19.5H159.511ZM159.451 8.5V10.88C159.451 13.08 158.471 15.48 155.951 16.72L157.391 18.74C160.331 17.36 161.531 14.14 161.531 10.88V8.5H159.451ZM159.991 8.5V10.88C159.991 14.04 161.031 17 163.771 18.28L165.231 16.26C162.911 15.14 162.031 13.02 162.031 10.88V8.5H159.991ZM187.489 7.24V25.82H190.129V7.24H187.489ZM184.309 13.76V15.92H187.789V13.76H184.309ZM175.429 19.48V21.64H176.909C180.029 21.64 182.429 21.56 185.109 21.14L184.869 19.02C182.249 19.44 179.969 19.48 176.909 19.48H175.429ZM175.429 8.8V20.16H178.069V10.96H184.009V8.8H175.429ZM177.469 13.96V16.04H183.369V13.96H177.469Z" fill="white"/>
<path d="M49.001 40H51.322C53.72 40 55.249 38.636 55.249 35.897C55.249 33.147 53.72 31.86 51.234 31.86H49.001V40ZM50.629 38.691V33.158H51.124C52.653 33.158 53.588 33.917 53.588 35.897C53.588 37.877 52.653 38.691 51.124 38.691H50.629ZM58.2285 40.154C58.9325 40.154 59.5485 39.813 60.0875 39.351H60.1315L60.2525 40H61.5725V36.414C61.5725 34.621 60.7695 33.697 59.2075 33.697C58.2285 33.697 57.3595 34.06 56.6335 34.5L57.2165 35.578C57.7775 35.237 58.3385 34.995 58.9105 34.995C59.6695 34.995 59.9225 35.446 59.9555 36.051C57.4805 36.326 56.4135 37.019 56.4135 38.328C56.4135 39.384 57.1285 40.154 58.2285 40.154ZM58.7565 38.889C58.2835 38.889 57.9535 38.68 57.9535 38.207C57.9535 37.646 58.4485 37.239 59.9555 37.052V38.295C59.5595 38.68 59.2185 38.889 58.7565 38.889ZM65.9046 40.154C66.6636 40.154 67.4336 39.901 68.0386 39.483L67.4996 38.482C67.0486 38.757 66.6086 38.911 66.1136 38.911C65.2006 38.911 64.5406 38.394 64.3976 37.382H68.2036C68.2366 37.228 68.2696 36.942 68.2696 36.634C68.2696 34.929 67.4006 33.697 65.6956 33.697C64.2436 33.697 62.8356 34.929 62.8356 36.931C62.8356 38.966 64.1776 40.154 65.9046 40.154ZM64.3756 36.304C64.5076 35.402 65.0796 34.94 65.7286 34.94C66.5206 34.94 66.8946 35.468 66.8946 36.304H64.3756ZM69.1722 42.519C70.7232 42.519 71.2402 41.485 71.2402 40.165V33.851H69.6232V40.198C69.6232 40.902 69.4582 41.254 68.9412 41.254C68.7652 41.254 68.5892 41.21 68.4352 41.155L68.1382 42.354C68.3802 42.442 68.6992 42.519 69.1722 42.519ZM70.4262 32.85C70.9762 32.85 71.3722 32.498 71.3722 31.959C71.3722 31.431 70.9762 31.09 70.4262 31.09C69.8762 31.09 69.4912 31.431 69.4912 31.959C69.4912 32.498 69.8762 32.85 70.4262 32.85ZM75.6585 40.154C76.4175 40.154 77.1875 39.901 77.7925 39.483L77.2535 38.482C76.8025 38.757 76.3625 38.911 75.8675 38.911C74.9545 38.911 74.2945 38.394 74.1515 37.382H77.9575C77.9905 37.228 78.0235 36.942 78.0235 36.634C78.0235 34.929 77.1545 33.697 75.4495 33.697C73.9975 33.697 72.5895 34.929 72.5895 36.931C72.5895 38.966 73.9315 40.154 75.6585 40.154ZM74.1295 36.304C74.2615 35.402 74.8335 34.94 75.4825 34.94C76.2745 34.94 76.6485 35.468 76.6485 36.304H74.1295ZM81.9401 40.154C83.4801 40.154 84.8881 38.966 84.8881 36.931C84.8881 34.885 83.4801 33.697 81.9401 33.697C80.3891 33.697 78.9811 34.885 78.9811 36.931C78.9811 38.966 80.3891 40.154 81.9401 40.154ZM81.9401 38.845C81.0931 38.845 80.6311 38.086 80.6311 36.931C80.6311 35.765 81.0931 35.017 81.9401 35.017C82.7761 35.017 83.2381 35.765 83.2381 36.931C83.2381 38.086 82.7761 38.845 81.9401 38.845ZM86.2518 40H87.8688V35.765C88.3198 35.325 88.6388 35.083 89.1448 35.083C89.7388 35.083 90.0138 35.402 90.0138 36.37V40H91.6308V36.161C91.6308 34.621 91.0478 33.697 89.7278 33.697C88.8918 33.697 88.2538 34.137 87.7258 34.665H87.6928L87.5608 33.851H86.2518V40ZM95.9229 40H97.3749V36.601C97.3749 35.831 97.2539 34.698 97.1659 33.928H97.2099L97.8699 35.842L99.1239 39.274H100.059L101.313 35.842L101.984 33.928H102.039C101.951 34.698 101.819 35.831 101.819 36.601V40H103.304V31.86H101.5L100.147 35.677C99.9819 36.183 99.8389 36.711 99.6519 37.239H99.6079C99.4319 36.711 99.2889 36.183 99.1019 35.677L97.7159 31.86H95.9229V40ZM107.853 40.154C108.612 40.154 109.382 39.901 109.987 39.483L109.448 38.482C108.997 38.757 108.557 38.911 108.062 38.911C107.149 38.911 106.489 38.394 106.346 37.382H110.152C110.185 37.228 110.218 36.942 110.218 36.634C110.218 34.929 109.349 33.697 107.644 33.697C106.192 33.697 104.784 34.929 104.784 36.931C104.784 38.966 106.126 40.154 107.853 40.154ZM106.324 36.304C106.456 35.402 107.028 34.94 107.677 34.94C108.469 34.94 108.843 35.468 108.843 36.304H106.324ZM113.622 40.154C114.172 40.154 114.601 40.033 114.931 39.923L114.667 38.746C114.491 38.812 114.26 38.889 114.051 38.889C113.512 38.889 113.215 38.559 113.215 37.855V35.116H114.744V33.851H113.215V32.179H111.873L111.697 33.851L110.74 33.917V35.116H111.598V37.855C111.598 39.23 112.159 40.154 113.622 40.154ZM116.008 40H117.625V36.337C117.966 35.446 118.549 35.116 119.022 35.116C119.286 35.116 119.451 35.16 119.671 35.215L119.946 33.829C119.759 33.741 119.561 33.697 119.231 33.697C118.593 33.697 117.922 34.126 117.482 34.94H117.449L117.317 33.851H116.008V40ZM123.201 40.154C124.741 40.154 126.149 38.966 126.149 36.931C126.149 34.885 124.741 33.697 123.201 33.697C121.65 33.697 120.242 34.885 120.242 36.931C120.242 38.966 121.65 40.154 123.201 40.154ZM123.201 38.845C122.354 38.845 121.892 38.086 121.892 36.931C121.892 35.765 122.354 35.017 123.201 35.017C124.037 35.017 124.499 35.765 124.499 36.931C124.499 38.086 124.037 38.845 123.201 38.845ZM127.513 42.365H129.13V40.495L129.075 39.494C129.537 39.923 130.065 40.154 130.593 40.154C131.946 40.154 133.211 38.944 133.211 36.832C133.211 34.929 132.309 33.697 130.791 33.697C130.131 33.697 129.493 34.038 128.987 34.489H128.954L128.822 33.851H127.513V42.365ZM130.241 38.823C129.911 38.823 129.515 38.713 129.13 38.372V35.655C129.548 35.226 129.922 35.017 130.329 35.017C131.187 35.017 131.55 35.666 131.55 36.854C131.55 38.185 130.978 38.823 130.241 38.823ZM137.166 40.154C138.706 40.154 140.114 38.966 140.114 36.931C140.114 34.885 138.706 33.697 137.166 33.697C135.615 33.697 134.207 34.885 134.207 36.931C134.207 38.966 135.615 40.154 137.166 40.154ZM137.166 38.845C136.319 38.845 135.857 38.086 135.857 36.931C135.857 35.765 136.319 35.017 137.166 35.017C138.002 35.017 138.464 35.765 138.464 36.931C138.464 38.086 138.002 38.845 137.166 38.845ZM142.995 40.154C143.38 40.154 143.633 40.088 143.82 40.022L143.622 38.823C143.512 38.845 143.468 38.845 143.413 38.845C143.259 38.845 143.094 38.724 143.094 38.339V31.233H141.477V38.273C141.477 39.417 141.862 40.154 142.995 40.154ZM144.947 40H146.564V33.851H144.947V40ZM145.75 32.85C146.311 32.85 146.696 32.498 146.696 31.959C146.696 31.431 146.311 31.09 145.75 31.09C145.189 31.09 144.815 31.431 144.815 31.959C144.815 32.498 145.189 32.85 145.75 32.85ZM150.532 40.154C151.082 40.154 151.511 40.033 151.841 39.923L151.577 38.746C151.401 38.812 151.17 38.889 150.961 38.889C150.422 38.889 150.125 38.559 150.125 37.855V35.116H151.654V33.851H150.125V32.179H148.783L148.607 33.851L147.65 33.917V35.116H148.508V37.855C148.508 39.23 149.069 40.154 150.532 40.154ZM154.092 40.154C154.796 40.154 155.412 39.813 155.951 39.351H155.995L156.116 40H157.436V36.414C157.436 34.621 156.633 33.697 155.071 33.697C154.092 33.697 153.223 34.06 152.497 34.5L153.08 35.578C153.641 35.237 154.202 34.995 154.774 34.995C155.533 34.995 155.786 35.446 155.819 36.051C153.344 36.326 152.277 37.019 152.277 38.328C152.277 39.384 152.992 40.154 154.092 40.154ZM154.62 38.889C154.147 38.889 153.817 38.68 153.817 38.207C153.817 37.646 154.312 37.239 155.819 37.052V38.295C155.423 38.68 155.082 38.889 154.62 38.889ZM159.084 40H160.701V35.765C161.152 35.325 161.471 35.083 161.977 35.083C162.571 35.083 162.846 35.402 162.846 36.37V40H164.463V36.161C164.463 34.621 163.88 33.697 162.56 33.697C161.724 33.697 161.086 34.137 160.558 34.665H160.525L160.393 33.851H159.084V40ZM172.066 40.154C173.122 40.154 173.991 39.747 174.662 38.966L173.804 37.943C173.375 38.416 172.825 38.746 172.132 38.746C170.834 38.746 170.009 37.69 170.009 35.908C170.009 34.17 170.933 33.114 172.154 33.114C172.781 33.114 173.243 33.389 173.661 33.796L174.519 32.751C173.991 32.201 173.166 31.717 172.132 31.717C170.064 31.717 168.348 33.279 168.348 35.963C168.348 38.68 170.009 40.154 172.066 40.154ZM175.842 40H177.459V33.851H175.842V40ZM176.645 32.85C177.206 32.85 177.591 32.498 177.591 31.959C177.591 31.431 177.206 31.09 176.645 31.09C176.084 31.09 175.71 31.431 175.71 31.959C175.71 32.498 176.084 32.85 176.645 32.85ZM181.426 40.154C181.976 40.154 182.405 40.033 182.735 39.923L182.471 38.746C182.295 38.812 182.064 38.889 181.855 38.889C181.316 38.889 181.019 38.559 181.019 37.855V35.116H182.548V33.851H181.019V32.179H179.677L179.501 33.851L178.544 33.917V35.116H179.402V37.855C179.402 39.23 179.963 40.154 181.426 40.154ZM184.34 42.475C185.726 42.475 186.386 41.639 186.925 40.198L189.114 33.851H187.563L186.705 36.7C186.562 37.283 186.408 37.866 186.276 38.449H186.221C186.034 37.855 185.88 37.261 185.693 36.7L184.725 33.851H183.086L185.484 39.89L185.385 40.253C185.198 40.803 184.846 41.199 184.23 41.199C184.076 41.199 183.911 41.144 183.801 41.111L183.504 42.354C183.735 42.431 183.988 42.475 184.34 42.475Z" fill="white"/>
</svg>
