<svg xmlns="http://www.w3.org/2000/svg" viewBox="0 0 500 500"><defs><style>.cls-1{fill:none;}</style></defs><title>blog</title><g id="Layer_2" data-name="Layer 2"><g id="Layer_1-2" data-name="Layer 1"><rect class="cls-1" width="500" height="500"/><g id="blog"><path id="패스_72" data-name="패스 72" d="M115.41,190.61A16.42,16.42,0,1,0,131.86,207h0a16.39,16.39,0,0,0-16.4-16.39Z"/><path id="패스_73" data-name="패스 73" d="M277.62,188.9a17.67,17.67,0,1,0,17.69,17.67h0A17.68,17.68,0,0,0,277.62,188.9Z"/><path id="패스_74" data-name="패스 74" d="M424.49,27.5H75.16A63.8,63.8,0,0,0,11.33,91.27h0V298.39a63.8,63.8,0,0,0,63.83,63.77H198.53l42,98.8s2.89,8.54,9.88,8.54h0c7,0,9.87-8.54,9.87-8.54l42-98.8H424.51a63.79,63.79,0,0,0,63.82-63.77h0V91.27A63.79,63.79,0,0,0,424.51,27.5ZM161.16,210.61a39.47,39.47,0,0,1-39.38,38.94,32.81,32.81,0,0,1-23.72-10v6.82H69.53V128.73h0c1.79.28,28.53,0,28.53,0v45c6.7-11.46,26.1-11.25,26.1-11.25a41.73,41.73,0,0,1,37.32,45.74c-.08.81-.19,1.61-.32,2.41ZM211.42,166v80.52H183.5V166.83C183.5,156,170,153,170,153V124.84a38.64,38.64,0,0,1,41.39,35.66,37.94,37.94,0,0,1,0,5.54Zm66.2,83.59a43.21,43.21,0,1,1,46.83-43.06A45.07,45.07,0,0,1,277.62,249.63Zm153,0A39.82,39.82,0,0,1,392,290.54c-.83,0-1.67,0-2.5,0H376.79V264h7.67s17.48,1.61,17.28-25.31c0,0-3.41,10.92-27.92,10.92A36.82,36.82,0,0,1,339,213.24V200.45a39.7,39.7,0,0,1,39-37.94,28.46,28.46,0,0,1,24.34,10.84v-8.62h28.33Z"/><path id="패스_75" data-name="패스 75" d="M386.25,189.28a17.26,17.26,0,1,0,17.28,17.26h0A17.29,17.29,0,0,0,386.25,189.28Z"/></g></g></g></svg>