<svg xmlns="http://www.w3.org/2000/svg" viewBox="0 0 510 510"><defs><style>.cls-1{fill:none;}</style></defs><title>insta</title><g id="Layer_2" data-name="Layer 2"><g id="Layer_1-2" data-name="Layer 1"><rect class="cls-1" width="510" height="510"/><g id="insta"><g id="그룹_10" data-name="그룹 10"><path id="SVGID" d="M151.47,6.72A179.53,179.53,0,0,0,90.85,18.35a125.92,125.92,0,0,0-44.22,29A119.87,119.87,0,0,0,18,91.55,187.24,187.24,0,0,0,6.38,152.32C5.29,179.12,5,187.62,5,255.49s.57,76.41,1.69,103.1a176.68,176.68,0,0,0,11.63,60.48,124.51,124.51,0,0,0,29,44.23A119.84,119.84,0,0,0,91.5,491.91a187.11,187.11,0,0,0,60.75,11.66c26.69,1.14,35.2,1.43,103.05,1.43s76.36-.29,103.05-1.72a179.8,179.8,0,0,0,60.75-11.65,124.52,124.52,0,0,0,44.22-29,120,120,0,0,0,28.62-44.23,187.24,187.24,0,0,0,11.63-60.77C504.71,331,505,322.43,505,254.56s-.29-76.41-1.69-103.1a180.19,180.19,0,0,0-11.63-60.77,124.56,124.56,0,0,0-29-44.22A120,120,0,0,0,418.5,17.85,186.83,186.83,0,0,0,357.75,6.2C330.88,5.29,322.39,5,254.52,5s-76.36.57-103,1.72m2.84,451.87a138.61,138.61,0,0,1-46.26-8.53,83.53,83.53,0,0,1-47.4-47.43,138.53,138.53,0,0,1-8.8-46.3c-1.14-26.41-1.43-34.37-1.69-101.12s0-74.69,1.15-101.12a138.67,138.67,0,0,1,8.51-46.31,83.48,83.48,0,0,1,47.4-47.42,146.11,146.11,0,0,1,46.25-8.79c26.41-1.15,34.34-1.43,100.76-1.72s74.67,0,101,1.14a138.56,138.56,0,0,1,46.25,8.54,75,75,0,0,1,28.62,18.75,77.41,77.41,0,0,1,18.73,28.62,146.08,146.08,0,0,1,8.8,46.38c1.14,26.41,1.43,34.37,1.69,100.84s0,74.68-1.15,101.11a142.75,142.75,0,0,1-8.5,46.6,83.51,83.51,0,0,1-47.4,47.42A146.23,146.23,0,0,1,356.06,458c-26.41,1.15-34.34,1.43-101.05,1.72s-74.38,0-100.76-1.14M358.06,121.49a29.95,29.95,0,1,0,29.82-30.1,29.94,29.94,0,0,0-29.82,30.1M126.73,255.26a128.54,128.54,0,1,0,0-.31v.28m44.85,0A83.25,83.25,0,1,1,255,338.48a83.24,83.24,0,0,1-83.46-83.25"/></g></g></g></g></svg>