<svg xmlns="http://www.w3.org/2000/svg" width="57.116" height="40.94" viewBox="0 0 57.116 40.94">
  <g id="logo" transform="translate(0 0.003)">
    <g id="Layer_1" data-name="Layer 1" transform="translate(0 -0.003)">
      <path id="패스_3" data-name="패스 3" d="M46.415.469c4.568.843,8.187,3.005,9.739,6.372a8.931,8.931,0,0,1,.962,3.609v2.17c-.488,5.4-4.329,11.657-10.7,17.057V27.763c6.372-5.288,10.463-14.065,6.976-22,.839,10.575-3.009,16.954-6.976,20.922ZM21.041,5.037C30.184.588,39.572-.855,46.415.469V26.682c-3.729,3.609-7.577,4.929-8.054,5.41a21.929,21.929,0,0,0,8.054-4.329v1.914a54.728,54.728,0,0,1-9.982,6.372C21.283,43.5,5.049,42.19.955,33.764A8.893,8.893,0,0,1,0,30.291v-1.8C.6,20.552,8.777,11.051,21.041,5.037Z" transform="translate(0 0.003)" fill="#ec1c24"/>
      <path id="패스_4" data-name="패스 4" d="M40.773,25.449,52.917,12.1H44.14l-6.853,7.938L29.11,10.9H20.09L33.077,25.33v12.5h7.7Z" transform="translate(-13.237 -7.181)" fill="#ec1c24"/>
      <path id="패스_5" data-name="패스 5" d="M37,19.711c1.808-1.32,3.732-2.524,5.775-3.729l5.653,6.376,6.853-7.938h8.777L51.914,27.769V40.152h-7.7v-12.5Z" transform="translate(-24.378 -9.5)" fill="#fff"/>
    </g>
  </g>
</svg>
