<svg xmlns="http://www.w3.org/2000/svg" width="137.737" height="28" viewBox="0 0 137.737 28">
  <g id="logo_w" transform="translate(-313.003 -628.069)">
    <path id="path178" d="M408.553,671.07a7.175,7.175,0,0,0-2.933-.828c-.828,0-1.358.3-1.358.761,0,1.4,4.712,1,4.712,4.237,0,1.779-1.493,2.811-3.557,2.811a6.278,6.278,0,0,1-3.341-.9v-2a5.372,5.372,0,0,0,3.164,1.2c.882,0,1.358-.312,1.358-.855,0-1.521-4.713-.964-4.713-4.291,0-1.6,1.385-2.661,3.531-2.661a7.572,7.572,0,0,1,3.136.72v1.805" transform="translate(-58.834 -26.792)" fill="#fff"/>
    <path id="path180" d="M430.949,682.609c-.2,0-.326-.123-.326-.434v-2.852c0-1.372-1.073-1.9-2.648-1.9a5.09,5.09,0,0,0-2.716.76v1.6a3.418,3.418,0,0,1,2.308-1.045c.855,0,1.127.461,1.086,1.045-2.62.815-3.72,1.114-3.72,2.607a1.671,1.671,0,0,0,1.752,1.535,3.5,3.5,0,0,0,2.064-.707c.136.5.448.707,1.1.707a4.1,4.1,0,0,0,1.847-.57v-1.1C431.234,682.582,431.084,682.609,430.949,682.609Zm-2.3-.325a1.666,1.666,0,0,1-1.086.475.652.652,0,0,1-.638-.665c0-.625.557-.9,1.724-1.318v1.508" transform="translate(-74.09 -32.669)" fill="#fff"/>
    <path id="path182" d="M444.2,677.782h2.1l1.33,3.449,1.345-3.449h2.091l-2.879,6.383h-1.1l-2.892-6.383" transform="translate(-86.847 -32.906)" fill="#fff"/>
    <path id="path184" d="M467.32,680.993h4.495a3.273,3.273,0,1,0-6.531-.3c0,1.955,1.426,3.232,3.626,3.232a4.536,4.536,0,0,0,2.8-.828v-1.236a3.676,3.676,0,0,1-2.323.9,1.83,1.83,0,0,1-2.064-1.766Zm1.4-2.4a1.347,1.347,0,0,1,1.358,1.372H467.36a1.331,1.331,0,0,1,1.358-1.372" transform="translate(-100.799 -32.668)" fill="#fff"/>
    <path id="path186" d="M501.142,675.271h-2.281v2.58a.91.91,0,0,0,.964,1,2.738,2.738,0,0,0,1.317-.366v1.426a4.458,4.458,0,0,1-1.82.394,2.161,2.161,0,0,1-2.431-2.35v-2.688H496v-.38l2.621-2.934h.244v1.969h2.281v1.345" transform="translate(-121.129 -29.051)" fill="#fff"/>
    <path id="path188" d="M515.467,672.832h.027a2.42,2.42,0,0,1,1.983-1.045,2.194,2.194,0,0,1,2.295,2.39v3.992H517.8V674.6c0-.936-.407-1.371-1.018-1.371-.461,0-.855.285-1.317.951v3.992H513.5v-9.26h1.969v3.924" transform="translate(-132.714 -27.032)" fill="#fff"/>
    <path id="path190" d="M537.137,680.993h4.495a3.273,3.273,0,1,0-6.531-.3c0,1.955,1.426,3.232,3.625,3.232a4.534,4.534,0,0,0,2.8-.828v-1.236a3.673,3.673,0,0,1-2.322.9,1.83,1.83,0,0,1-2.064-1.766Zm1.4-2.4a1.347,1.347,0,0,1,1.358,1.372h-2.716a1.33,1.33,0,0,1,1.357-1.372" transform="translate(-147.014 -32.668)" fill="#fff"/>
    <path id="path192" d="M576.248,677.127a7.191,7.191,0,0,1-3.639.924c-3.6,0-5.39-2.336-5.39-4.726,0-2.471,2.023-4.779,5.567-4.779a6.529,6.529,0,0,1,3.354.815v2.064a6.463,6.463,0,0,0-3.191-.951c-1.969,0-3.354,1.168-3.354,2.811s1.372,2.838,3.3,2.838a7.2,7.2,0,0,0,3.354-1.018v2.023" transform="translate(-168.274 -26.792)" fill="#fff"/>
    <path id="path194" d="M599.954,672.832h.027a2.42,2.42,0,0,1,1.983-1.045,2.194,2.194,0,0,1,2.295,2.39v3.992h-1.969V674.6c0-.936-.407-1.371-1.018-1.371-.461,0-.855.285-1.317.951v3.992h-1.969v-9.26h1.969v3.924" transform="translate(-188.639 -27.032)" fill="#fff"/>
    <path id="path196" d="M620.63,684.043H622.6v-6.26H620.63Z" transform="translate(-203.629 -32.907)" fill="#fff"/>
    <path id="path198" d="M622.482,669.631a1.086,1.086,0,1,1-1.086-1.086,1.09,1.09,0,0,1,1.086,1.086" transform="translate(-203.417 -26.792)" fill="#fff"/>
    <path id="path200" d="M630.713,678.168h1.969v-9.26h-1.969Z" transform="translate(-210.303 -27.032)" fill="#fff"/>
    <path id="path202" d="M644.342,668.907v3.272a3.639,3.639,0,0,0-1.63-.394,3.264,3.264,0,0,0-.109,6.5,2.568,2.568,0,0,0,1.739-.625v.5h1.969v-9.26Zm0,7.55a1.651,1.651,0,0,1-1.168.516c-.923,0-1.507-.761-1.507-1.9,0-1.249.584-1.969,1.575-1.969a2.13,2.13,0,0,1,1.1.367v2.988" transform="translate(-216.232 -27.032)" fill="#fff"/>
    <path id="path204" d="M665.409,679.337h.027c.583-1.3,1.236-1.914,2-1.914a2.141,2.141,0,0,1,1.3.57l-.543,1.739a2.265,2.265,0,0,0-1.168-.461c-.719,0-1.181.679-1.615,1.833v2.7H663.44v-6.26h1.969v1.793" transform="translate(-231.966 -32.669)" fill="#fff"/>
    <path id="path206" d="M681.585,680.993h4.495a3.273,3.273,0,1,0-6.531-.3c0,1.955,1.426,3.232,3.626,3.232a4.533,4.533,0,0,0,2.8-.828v-1.236a3.673,3.673,0,0,1-2.322.9,1.83,1.83,0,0,1-2.064-1.766Zm1.4-2.4a1.346,1.346,0,0,1,1.357,1.372h-2.716a1.331,1.331,0,0,1,1.358-1.372" transform="translate(-242.629 -32.668)" fill="#fff"/>
    <path id="path208" d="M703.8,678.44a2.522,2.522,0,0,1,2.037-1.018,2.191,2.191,0,0,1,2.281,2.4V683.8h-1.969v-3.816c0-.882-.421-1.249-.977-1.249-.489,0-.856.258-1.372,1.032V683.8H701.83v-6.26H703.8v.9" transform="translate(-257.378 -32.668)" fill="#fff"/>
    <path id="path210" d="M337.9,635.7c1.248-1.284,1.8-1.878,1.716-2.23a1.18,1.18,0,0,0-.713-.69,1.823,1.823,0,0,0-1.326-.156,4.5,4.5,0,0,0-.7.639l-.394.386h0c-.216-.253-.447-.506-.675-.734a12.442,12.442,0,0,0-6.059-3.333,3.816,3.816,0,0,0-3.281-1.5,3.7,3.7,0,0,0-2.631,1.53,13.958,13.958,0,0,0-6.481,3.508h0a2.881,2.881,0,0,0-1.755.2.88.88,0,0,0-.547.533c-.041.16.008.418.606,1.2v0a13.75,13.75,0,0,0-2.639,8.716,12.559,12.559,0,0,0,3.638,8.3,12.38,12.38,0,0,0,2.587,1.983h0a15.313,15.313,0,0,0,14.274.475l.008,0a.776.776,0,0,0,.374-1l-.045-.123c-.606-1.656-2.452-6.7-.931-11.075a16.633,16.633,0,0,1,3.613-5.194h0a12.214,12.214,0,0,1,1.454,7.164,11.16,11.16,0,0,1-2.65,6.133h0a.261.261,0,0,0-.072.181.442.442,0,0,0,.013.084l.117.331a.264.264,0,0,0,.44.087h.008a13.433,13.433,0,0,0,2.058-15.408h0Zm-16.552,9.464a25.285,25.285,0,0,0-.835,7.418h0a12.638,12.638,0,0,1-2.461-1.912,12.418,12.418,0,0,1-3.579-7.419,11.511,11.511,0,0,1,1.752-7.5h0c.445.533.986,1.15,1.553,1.794a38.617,38.617,0,0,1,3.7,4.609c.428.72.22,1.581-.125,3.008Zm13.693-10.177c-2.93,2.568-5.618,3.884-7.981,3.9a9.6,9.6,0,0,1-5.586-1.995,21.954,21.954,0,0,1-3.438-3.136l-.072-.077h0a11.2,11.2,0,0,1,5.161-2.729h0s0,0,0,0a5.624,5.624,0,0,0-.274,2.328,5.3,5.3,0,0,0,1.781,3.6,3.551,3.551,0,0,0,5.169-.452,5.291,5.291,0,0,0,1.128-3.854,5.844,5.844,0,0,0-.123-.787h0a12.5,12.5,0,0,1,3.6,2.522c.214.215.426.442.63.68h0" fill="#ed1b2d"/>
  </g>
</svg>
