<svg xmlns="http://www.w3.org/2000/svg" width="14.5" height="21.232" viewBox="0 0 14.5 21.232">
  <path id="scroll" d="M17.25,24.232A7.163,7.163,0,0,1,10,16.982V10.25A7.163,7.163,0,0,1,17.25,3a7.163,7.163,0,0,1,7.25,7.25v6.732a7.163,7.163,0,0,1-7.25,7.25Zm.777-13.982h4.92a5.629,5.629,0,0,0-1.372-3.729,5.385,5.385,0,0,0-3.547-1.916Zm-6.473,0h4.92V4.605a5.385,5.385,0,0,0-3.547,1.916A5.629,5.629,0,0,0,11.554,10.25Zm5.7,12.429a5.7,5.7,0,0,0,5.7-5.7V11.8H11.554v5.179a5.7,5.7,0,0,0,5.7,5.7ZM17.25,11.8ZM18.027,10.25ZM16.473,10.25ZM17.25,11.8Z" transform="translate(-10 -3)" fill="#fff"/>
</svg>
