<svg xmlns="http://www.w3.org/2000/svg" width="72" height="65.373" viewBox="0 0 72 65.373">
  <path id="support_ico3_w" d="M37.591,64.514a2.67,2.67,0,0,0,.941-.2,2.427,2.427,0,0,0,.859-.532L66.964,36.123a7.032,7.032,0,0,0,1.6-2.414,7.421,7.421,0,0,0,.532-2.741,7.741,7.741,0,0,0-.532-2.782,6.942,6.942,0,0,0-1.6-2.455L52.236,11a6.942,6.942,0,0,0-2.455-1.6A7.741,7.741,0,0,0,47,8.877a7.421,7.421,0,0,0-2.741.532A7.032,7.032,0,0,0,41.845,11l-1.473,1.473L47,19.186a12.89,12.89,0,0,1,1.882,2.659,6.857,6.857,0,0,1,.818,3.314,7.468,7.468,0,0,1-2.414,5.482,7.662,7.662,0,0,1-5.523,2.373,8.218,8.218,0,0,1-3.4-.614,8.5,8.5,0,0,1-2.5-1.759L29.9,24.668,15.091,39.477a2.372,2.372,0,0,0-.573.859,2.732,2.732,0,0,0-.164.941,2.379,2.379,0,0,0,2.455,2.455,1.938,1.938,0,0,0,.941-.245,3.376,3.376,0,0,0,.777-.573L29.818,31.623l3.436,3.436L22.045,46.268a2.3,2.3,0,0,0-.573.9,3.089,3.089,0,0,0-.164.982A2.517,2.517,0,0,0,23.764,50.6a2.249,2.249,0,0,0,.941-.2,2.62,2.62,0,0,0,.777-.532L36.773,38.577l3.436,3.436L29,53.223a2.427,2.427,0,0,0-.532.859,2.845,2.845,0,0,0-.2,1.023,2.517,2.517,0,0,0,2.455,2.455,2.4,2.4,0,0,0,.9-.164,2.493,2.493,0,0,0,.818-.573L43.727,45.532l3.436,3.436L35.873,60.259a2.3,2.3,0,0,0-.573.9,2.867,2.867,0,0,0-.164.9,2.265,2.265,0,0,0,2.455,2.455Zm0,4.909a6.852,6.852,0,0,1-4.827-2,8.144,8.144,0,0,1-2.536-4.95,8.046,8.046,0,0,1-6.955-6.955,7.771,7.771,0,0,1-4.623-2.332,8.323,8.323,0,0,1-2.25-4.623A8.221,8.221,0,0,1,11.409,46.1,6.837,6.837,0,0,1,9.445,41.2a7.741,7.741,0,0,1,.532-2.782,6.942,6.942,0,0,1,1.6-2.455L29.9,17.632l9,9a5.122,5.122,0,0,0,1.432,1.023,3.524,3.524,0,0,0,1.514.368,3.26,3.26,0,0,0,2.945-2.945,2.655,2.655,0,0,0-.286-1.1,4.6,4.6,0,0,0-.941-1.268L31.864,11a6.942,6.942,0,0,0-2.455-1.6,7.741,7.741,0,0,0-2.782-.532,7.421,7.421,0,0,0-2.741.532A7.032,7.032,0,0,0,21.473,11L9.036,23.441a6.527,6.527,0,0,0-1.6,2.414,9.983,9.983,0,0,0-.532,2.823,6.646,6.646,0,0,0,.614,3.15A13.159,13.159,0,0,0,9.2,34.568L5.682,38.086A14.348,14.348,0,0,1,3.023,33.75,13.675,13.675,0,0,1,2,28.6a12.075,12.075,0,0,1,.941-4.7A12.232,12.232,0,0,1,5.6,19.923L17.955,7.568a11.4,11.4,0,0,1,4.091-2.659,13.185,13.185,0,0,1,4.664-.859,12.857,12.857,0,0,1,4.623.859,11.483,11.483,0,0,1,4.05,2.659l1.473,1.473,1.473-1.473a11.4,11.4,0,0,1,4.091-2.659,13.185,13.185,0,0,1,4.664-.859,12.857,12.857,0,0,1,4.623.859,11.483,11.483,0,0,1,4.05,2.659L70.4,22.214A11.886,11.886,0,0,1,73.1,26.3a12.656,12.656,0,0,1,.9,4.664,12.342,12.342,0,0,1-.9,4.623,11.987,11.987,0,0,1-2.7,4.05L42.827,67.214a7.569,7.569,0,0,1-2.414,1.636A7.155,7.155,0,0,1,37.591,69.423ZM29.573,24.75Z" transform="translate(-2 -4.05)" fill="#fff"/>
</svg>
