<svg xmlns="http://www.w3.org/2000/svg" width="58.836" height="65.373" viewBox="0 0 58.836 65.373">
  <path id="support_ico2" d="M35.418,56.3a30.29,30.29,0,0,0-10.3,1.757,29.934,29.934,0,0,0-9.316,5.516v.9H55.03v-.409a30.655,30.655,0,0,0-9.193-5.72A27.828,27.828,0,0,0,35.418,56.3ZM10.9,61.2A33.755,33.755,0,0,1,21.976,53.97,35.356,35.356,0,0,1,35.418,51.4,34.968,34.968,0,0,1,59.933,61.2v-47.4H10.9ZM35.418,43.714A11.022,11.022,0,0,1,24.3,32.6,11.022,11.022,0,0,1,35.418,21.487,11.022,11.022,0,0,1,46.531,32.6,11.022,11.022,0,0,1,35.418,43.714Zm0-4.9a6.139,6.139,0,0,0,6.21-6.21,6.241,6.241,0,0,0-10.623-4.413,6.314,6.314,0,0,0,0,8.825,6,6,0,0,0,4.413,1.8ZM10.9,69.373A4.7,4.7,0,0,1,7.471,67.9,4.7,4.7,0,0,1,6,64.47V13.806a4.7,4.7,0,0,1,1.471-3.432A4.7,4.7,0,0,1,10.9,8.9h5.312V4h5.312V8.9H49.31V4h5.312V8.9h5.312a4.7,4.7,0,0,1,3.432,1.471,4.7,4.7,0,0,1,1.471,3.432V64.47a5.027,5.027,0,0,1-4.9,4.9ZM35.418,32.6Zm0,31.869h0Z" transform="translate(-6 -4)" fill="#3d3d3d"/>
</svg>
