<svg width="76" height="33" viewBox="0 0 76 33" fill="none" xmlns="http://www.w3.org/2000/svg">
<g clip-path="url(#clip0_10_449)">
<path d="M16.513 33C25.6253 33 33.0261 25.621 33.0261 16.5036C33.0261 7.38579 25.6253 0 16.513 0C7.38665 0 0 7.38579 0 16.5036C0 25.621 7.38665 33 16.513 33Z" fill="#A50034"/>
<path d="M15.8486 9.26096V23.739H20.4513V22.4372H17.1752V9.26096H15.8486Z" fill="white"/>
<path d="M11.2404 13.2113C12.3354 13.2113 13.2181 12.3209 13.2181 11.2335C13.2181 10.1454 12.3354 9.25156 11.2404 9.25156C10.1454 9.25156 9.2627 10.1454 9.2627 11.2335C9.2627 12.3217 10.1454 13.2113 11.2404 13.2113Z" fill="white"/>
<path d="M17.1751 2.69336C17.0025 2.68481 16.6744 2.67413 16.5176 2.67413C8.89556 2.67413 2.69238 8.87944 2.69238 16.4968C2.69238 20.1967 4.13006 23.6647 6.73412 26.2726C9.34887 28.8745 12.8185 30.3122 16.5176 30.3122C20.2026 30.3122 23.6714 28.8745 26.2815 26.2726C28.8919 23.6647 30.3364 20.1967 30.3364 16.4968V15.882H29.7772H20.4645V17.1543H29.0197C29.0197 17.1821 29.0197 17.3171 29.0137 17.3521C28.5788 23.8642 23.1399 29.0219 16.5176 29.0219C13.1654 29.0219 10.0222 27.7184 7.65655 25.351C5.2832 22.9935 3.9754 19.8528 3.9754 16.4964C3.9754 13.1592 5.2832 10.0022 7.65655 7.63744C10.0222 5.27478 13.1654 3.97125 16.5176 3.97125C16.662 3.97125 17.0132 3.97125 17.1751 3.97979V2.69336Z" fill="white"/>
<path d="M45.4444 5.55505H40.4824V27.0361H55.7231V22.8546H45.4444V5.55505ZM66.6388 18.8501H70.6801V22.606C69.935 22.8897 68.4819 23.1725 67.0994 23.1725C62.6334 23.1725 61.1457 20.9043 61.1457 16.2973C61.1457 11.9039 62.5625 9.31353 67.0285 9.31353C69.5103 9.31353 70.9279 10.0937 72.096 11.5826L75.1812 8.74615C73.3021 6.0545 70.0051 5.23932 66.9225 5.23932C59.9738 5.23932 56.3238 9.03155 56.3238 16.2614C56.3238 23.4562 59.62 27.3548 66.8875 27.3548C70.2187 27.3548 73.4799 26.5046 75.2512 25.2643V14.8438H66.6388V18.8501Z" fill="white"/>
</g>
<defs>
<clipPath id="clip0_10_449">
<rect width="75.2516" height="33" fill="white"/>
</clipPath>
</defs>
</svg>
